<svg width="30" height="30" viewBox="0 0 30 30" fill="none" xmlns="http://www.w3.org/2000/svg">
<path d="M4.96436 20.5996V20.623H3.1389C1.35576 20.623 1.28465 20.6284 1.16978 20.7324C1.10415 20.7925 1.03851 20.9019 1.01663 20.973C1.00022 21.0496 0.994752 21.7552 1.00569 22.5483C1.02757 23.9322 1.03304 24.0033 1.17525 24.4245M4.96436 20.5996H3.1389C2.24773 20.5996 1.78329 20.601 1.52743 20.6154C1.39967 20.6226 1.32196 20.6331 1.26849 20.6491C1.2134 20.6655 1.18444 20.6876 1.15413 20.7151L1.15402 20.7152C1.11916 20.7471 1.08506 20.7914 1.05702 20.8362C1.02899 20.8811 1.00606 20.9281 0.994335 20.9662L0.993734 20.9681L0.993821 20.9681C0.991339 20.9797 0.989396 21.0009 0.987716 21.0288C0.985997 21.0573 0.984471 21.0945 0.983144 21.1392C0.980487 21.2288 0.978605 21.3492 0.977579 21.4918C0.975526 21.7771 0.976895 22.152 0.982366 22.5486L0.982367 22.5487C0.993299 23.2402 1.00014 23.605 1.02211 23.8495C1.04422 24.0954 1.08174 24.2204 1.15313 24.4319M4.96436 20.5996V18.6921V18.6921C4.9671 16.1321 4.99445 12.7832 5.02863 10.0435C5.04573 8.67369 5.06453 7.45611 5.08282 6.56558C5.09197 6.12032 5.10098 5.75675 5.1096 5.49677C5.11391 5.36679 5.11812 5.26258 5.1222 5.18696C5.12424 5.14916 5.12625 5.11836 5.12824 5.09498C5.13018 5.07227 5.13221 5.05494 5.13458 5.04519L4.98769 20.5996H4.96436ZM1.15313 24.4319C1.15313 24.4318 1.15312 24.4318 1.15312 24.4318L1.17525 24.4245M1.15313 24.4319C1.15314 24.4319 1.15315 24.4319 1.15315 24.4319L1.17525 24.4245M1.15313 24.4319C1.63173 25.8731 2.85869 26.9078 4.33376 27.1004M1.17525 24.4245C1.65112 25.8575 2.87088 26.8859 4.33678 27.0773M4.33678 27.0773L4.33365 27.1004C4.33369 27.1004 4.33373 27.1004 4.33376 27.1004M4.33678 27.0773L4.33376 27.1004M4.33678 27.0773L5.15725 5.0507C5.39792 4.06067 6.24027 3.20739 7.2467 2.9339L7.24057 2.91139C7.24057 2.91139 7.24058 2.91139 7.24059 2.91139C7.30397 2.89411 7.44654 2.88115 7.74761 2.8711C8.04997 2.861 8.51483 2.85382 9.22524 2.84904C10.6461 2.83946 13.0502 2.83946 17.1033 2.84493L26.6754 2.85587L26.6754 2.85431L26.6835 2.85734L27.0062 2.97768L27.0064 2.97774C27.7721 3.26969 28.4388 3.88648 28.7532 4.58162L28.7534 4.5819C28.8773 4.86554 28.945 5.06357 28.9815 5.48971C29.0179 5.91417 29.0233 6.56625 29.0233 7.75824V10.0118V10.0204L29.0177 10.027L28.8864 10.1801L28.7552 10.3333L28.7482 10.3413L28.7376 10.3414L26.3528 10.3578L23.9966 10.3741L23.9802 17.6367L23.9638 23.9322L23.9649 23.9322L23.9627 23.9391L23.826 24.3767L23.8259 24.3769C23.6115 25.0477 23.3196 25.5269 22.8137 26.0273L22.7973 26.0107L22.8137 26.0273C22.3462 26.4893 21.8618 26.7865 21.2188 27.0118L21.2186 27.0118C21.0477 27.0707 20.9481 27.0993 19.8959 27.1157C18.8447 27.132 16.8397 27.1362 12.8586 27.1443L12.8369 27.1444L12.8368 27.1257L12.8369 27.1444C10.0172 27.1499 7.97279 27.1499 6.59295 27.143C5.90304 27.1396 5.37918 27.1345 5.00759 27.1275C4.63693 27.1205 4.4162 27.1116 4.33376 27.1004M23.6707 4.01865L23.6706 4.0188C23.4772 4.26197 23.2956 4.6035 23.1473 5.00432C23.1216 5.07306 23.1026 5.15093 23.0877 5.37469C23.0729 5.59837 23.0621 5.9697 23.0536 6.62638C23.0365 7.93996 23.0283 10.3974 23.0146 15.1041C23.0009 19.8684 22.9927 22.0765 22.9756 23.1272C22.9671 23.6529 22.9563 23.8876 22.9417 24.0076C22.9315 24.0916 22.9202 24.1163 22.9051 24.1492C22.899 24.1625 22.8923 24.1771 22.8848 24.1974M23.6707 4.01865L7.66028 3.81027C6.81186 3.93457 6.16365 4.5882 6.0501 5.43646C6.04479 5.4834 6.03831 5.70623 6.03138 6.07126C6.02446 6.43594 6.01711 6.94081 6.00993 7.5493C5.99557 8.76626 5.9819 10.3976 5.9737 12.1506C5.95729 15.6568 5.92447 18.2275 5.90805 19.0755L5.90805 19.0756L5.87035 20.5996H11.3819H16.9173H16.9269L16.9338 20.6065L17.0596 20.7323C17.0913 20.764 17.118 20.7919 17.1384 20.8386C17.1586 20.8845 17.1722 20.9471 17.1825 21.0479C17.2031 21.2495 17.2114 21.6132 17.225 22.3236L17.225 22.3237C17.2414 23.4902 17.269 23.8252 17.3443 24.0618L17.3443 24.0619C17.7517 25.3493 18.8481 26.1897 20.128 26.1897C20.6549 26.1897 20.9903 26.1086 21.4573 25.8642L21.4575 25.8641C22.0806 25.5444 22.5967 24.9368 22.8848 24.1974M23.6707 4.01865C23.7167 3.96181 23.7586 3.90366 23.789 3.85717M23.6707 4.01865L23.789 3.85717M22.8848 24.1974C22.8848 24.1975 22.8848 24.1976 22.8848 24.1976L22.9067 24.2057M22.8848 24.1974C22.8849 24.1974 22.8849 24.1973 22.8849 24.1972L22.9067 24.2057M22.9067 24.2057C22.6168 24.9496 22.0971 25.5622 21.4681 25.8849M22.9067 24.2057C22.9135 24.187 22.9199 24.1731 22.9259 24.16C23.006 23.9848 23.0125 23.9706 23.0379 15.1041C23.0653 5.69066 23.0708 5.27496 23.1692 5.01241C23.3169 4.61312 23.4974 4.27399 23.6888 4.03332C23.7818 3.91846 23.8584 3.79812 23.8584 3.77624L21.4681 25.8849M21.4681 25.8849C20.9977 26.131 20.6586 26.2131 20.128 26.2131C18.8372 26.2131 17.7323 25.3653 17.322 24.0689C17.2455 23.8282 17.2181 23.4891 17.2017 22.3241C17.1743 20.9019 17.1689 20.8746 17.0431 20.7488L21.4681 25.8849ZM23.789 3.85717C23.8041 3.83389 23.8162 3.81383 23.8244 3.79849M23.789 3.85717L23.8244 3.79849M23.8244 3.79849C23.8251 3.7973 23.8257 3.79615 23.8262 3.79503M23.8244 3.79849L23.8262 3.79503M23.8262 3.79503C23.8219 3.79472 23.8171 3.79441 23.8118 3.7941C23.7822 3.79238 23.7382 3.79071 23.6804 3.78911C23.5648 3.7859 23.3952 3.78297 23.179 3.7803C22.7467 3.77496 22.1285 3.77068 21.3853 3.76744C19.8989 3.76094 17.9128 3.75855 15.9136 3.75992C13.9144 3.76128 11.9022 3.76641 10.3639 3.77496C9.59475 3.77923 8.94409 3.78436 8.47274 3.7903C8.23706 3.79327 8.04628 3.79644 7.90796 3.79981C7.76876 3.80319 7.6846 3.80676 7.66032 3.81027L23.8262 3.79503ZM26.879 3.98345L26.879 3.98344C25.8462 3.513 24.6783 3.95059 24.1858 4.99501L24.1858 4.99511L24.0184 5.34597L24.0021 7.37554L23.9859 9.39225H26.019H28.0521L28.0359 7.34819L28.0195 5.29135L27.8469 4.93533C27.8469 4.93529 27.8468 4.93524 27.8468 4.9352C27.6357 4.51303 27.2949 4.1725 26.879 3.98345ZM16.3473 23.9966L16.3473 23.9965C16.3306 23.9044 16.3155 23.7018 16.3046 23.4512C16.2936 23.1999 16.2868 22.8987 16.2868 22.6085V21.5761H9.11737H1.94794V22.6358C1.94794 23.2404 1.96029 23.6146 2.00916 23.9064C2.05783 24.1972 2.14284 24.4066 2.28975 24.6814C2.40315 24.892 2.60383 25.1418 2.82782 25.3637C3.05193 25.5858 3.2973 25.7779 3.49906 25.8748L3.49927 25.8749C3.54017 25.895 3.57696 25.9138 3.61136 25.9314C3.72805 25.991 3.8172 26.0365 3.94559 26.0726C4.11184 26.1193 4.34394 26.1498 4.78296 26.1699C5.56166 26.2057 6.9852 26.2087 9.83374 26.2146C10.1967 26.2154 10.5827 26.2162 10.9936 26.2171L10.9936 26.2171C12.815 26.2226 14.4723 26.2226 15.6742 26.2178C16.2751 26.2154 16.7622 26.2118 17.099 26.2071C17.2674 26.2047 17.3981 26.2021 17.4867 26.1992C17.5309 26.1978 17.5644 26.1963 17.5867 26.1947C17.5864 26.1943 17.5861 26.1939 17.5858 26.1935C17.5748 26.1781 17.5585 26.158 17.5383 26.1347C17.4978 26.0881 17.4422 26.0299 17.3825 25.9729C16.9082 25.5206 16.474 24.6847 16.3473 23.9966ZM17.6229 26.2131C17.6229 26.2404 14.6364 26.2514 10.9935 26.2404L17.6133 26.1923C17.6195 26.202 17.6229 26.2091 17.6229 26.2131Z" fill="#1D1D1D" stroke="#1D1D1D" stroke-width="0.0466547"/>
<path d="M10.4922 17.5064L18.5369 9.38281" stroke="#1D1D1D" stroke-width="1.1" stroke-linecap="round"/>
<ellipse cx="11.6301" cy="10.5533" rx="1.72387" ry="1.74075" stroke="#1D1D1D" stroke-width="1.1"/>
<ellipse cx="17.3723" cy="16.3501" rx="1.72387" ry="1.74075" stroke="#1D1D1D" stroke-width="1.1"/>
</svg>
