<svg width="30" height="30" viewBox="0 0 30 30" fill="none" xmlns="http://www.w3.org/2000/svg">
<path d="M14.482 17.1827C13.5274 17.1731 12.7541 16.4013 12.7536 15.4545V15.4527C12.7539 14.5002 13.5369 13.7247 14.5001 13.7247C15.4635 13.7247 16.2468 14.5004 16.2468 15.4537C16.247 16.4067 15.4637 17.1827 14.5001 17.1827H14.482ZM24.1318 19.9229V19.9227H24.1077C22.7002 19.9227 21.523 20.9156 21.2516 22.2309H2.56128C2.23845 22.2309 1.97663 22.49 1.97663 22.8099C1.97663 23.1298 2.23845 23.389 2.56128 23.389H21.2516C21.5235 24.7048 22.7005 25.6971 24.1077 25.6971C25.7158 25.6971 27.024 24.4018 27.024 22.8094C27.0238 21.2253 25.7283 19.9357 24.1318 19.9229ZM26.4394 14.8744H17.356C17.0842 13.5586 15.9072 12.5663 14.4994 12.5663C13.0919 12.5663 11.9147 13.5591 11.6433 14.8744H2.56061C2.23779 14.8744 1.97596 15.1333 1.97596 15.4535C1.97596 15.7737 2.23779 16.0325 2.56061 16.0325H11.6433C11.9152 17.3483 13.0919 18.3407 14.4994 18.3407C15.9069 18.3407 17.0841 17.3478 17.356 16.0325H26.4394C26.7619 16.0325 27.024 15.7737 27.024 15.4535C27.024 15.1333 26.7619 14.8744 26.4394 14.8744ZM4.89241 10.7511C6.29311 10.7511 7.46642 9.7683 7.74575 8.46209H26.4389C26.7615 8.46209 27.0236 8.20322 27.0236 7.88303C27.0236 7.56284 26.7615 7.30398 26.4389 7.30398L7.75204 7.30372C7.48789 5.97863 6.3067 4.97596 4.89241 4.97596C3.28458 4.97596 1.97612 6.27108 1.97612 7.86339C1.97639 9.45602 3.28484 10.7511 4.89241 10.7511ZM4.89241 6.13467C5.85588 6.13467 6.63937 6.91043 6.63937 7.8637C6.63937 8.81697 5.85614 9.59299 4.89241 9.59299C3.92894 9.59299 3.14571 8.81724 3.14571 7.8637C3.14571 6.91069 3.9292 6.13467 4.89241 6.13467ZM24.1077 24.5392C23.1448 24.5392 22.3613 23.7629 22.3613 22.8099C22.3613 21.8572 23.1445 21.0811 24.1077 21.0811C25.0712 21.0811 25.8544 21.8569 25.8544 22.8099C25.8544 23.7629 25.0709 24.5392 24.1077 24.5392Z" fill="#1D1D1D" stroke="#1D1D1D" stroke-width="0.0480769"/>
</svg>
