<svg width="30" height="30" viewBox="0 0 30 30" fill="none" xmlns="http://www.w3.org/2000/svg">
<path d="M14.1825 2.02631L14.1824 2.02631C11.0006 2.21977 8.08341 3.54349 5.80791 5.81898C3.47129 8.15051 2.13742 11.1593 1.9847 14.448L1.9847 14.448C1.96951 14.7797 1.9617 14.9549 1.97337 15.0683C1.97929 15.1259 1.9903 15.1687 2.00826 15.2087C2.02598 15.2481 2.05009 15.2838 2.08047 15.3268C2.1962 15.4977 2.36289 15.5909 2.53672 15.6015C2.71052 15.6122 2.88902 15.5402 3.02821 15.3853C3.06018 15.3508 3.08615 15.3202 3.10685 15.2842C3.12771 15.2479 3.14261 15.2071 3.15412 15.1522L14.1825 2.02631ZM14.1825 2.02631C16.0354 1.91941 18.0308 2.21968 19.6908 2.87146C21.4573 3.56379 22.8778 4.50067 24.2775 5.90541L24.2775 5.90544L25.0334 6.66622M14.1825 2.02631L25.0334 6.66622M25.9573 8.98162L25.972 9.00118C25.9345 9.0293 25.9014 9.05124 25.8269 9.06744C25.7544 9.08319 25.6419 9.0937 25.445 9.10132C25.0528 9.11651 24.3186 9.12036 22.881 9.1279L22.8578 9.12802C22.0448 9.1331 21.2812 9.1331 20.7063 9.12992C20.4188 9.12834 20.1785 9.12595 20.0026 9.12301C19.8278 9.12009 19.7148 9.11661 19.6838 9.11257L19.6836 9.11255C19.531 9.0915 19.4042 9.02812 19.2987 8.92269L19.2984 8.92234C19.2344 8.85582 19.1934 8.80463 19.1693 8.74204C19.1454 8.67976 19.1391 8.60855 19.1391 8.50397C19.1391 8.40186 19.1454 8.33081 19.1686 8.26866C19.192 8.20612 19.2316 8.15494 19.2933 8.0907L19.2933 8.09068L19.2942 8.08983C19.3389 8.0477 19.3964 8.00598 19.4542 7.97219C19.5118 7.93855 19.5715 7.91177 19.6207 7.90083L19.6207 7.90081L19.6217 7.90062C19.6344 7.89838 19.6631 7.89644 19.7037 7.89459C19.7451 7.8927 19.8007 7.89085 19.8689 7.88907C20.0053 7.88549 20.1922 7.88215 20.4158 7.87929C20.8631 7.87358 21.4577 7.86976 22.0904 7.86976C22.7255 7.86976 23.3021 7.86595 23.7199 7.86024C23.9288 7.85738 24.0979 7.85405 24.2148 7.85048C24.2732 7.8487 24.3184 7.84686 24.3488 7.84501C24.3555 7.8446 24.3614 7.8442 24.3665 7.8438C24.3649 7.84026 24.3629 7.83622 24.3605 7.83167C24.3512 7.81402 24.3372 7.79173 24.3186 7.76511C24.2813 7.71195 24.2271 7.64341 24.1594 7.56337C24.0241 7.40339 23.8365 7.19897 23.6277 6.98259C23.21 6.54965 22.7091 6.07038 22.375 5.80462L22.3749 5.80452C21.1226 4.79562 19.4947 3.98921 17.8922 3.57337L17.8922 3.57336C16.5944 3.23371 14.6517 3.12218 13.4001 3.31472C9.40864 3.93347 6.17372 6.26104 4.4345 9.77498C3.69418 11.2708 3.29862 12.8021 3.20224 14.5723L25.9282 2.06911C26.0008 2.10274 26.0629 2.13155 26.1096 2.19975C26.1601 2.27357 26.1912 2.39086 26.2116 2.60417C26.2511 3.01883 26.2511 3.81522 26.2511 5.41381L26.2511 5.56698L26.2511 5.74569C26.2511 7.27136 26.2511 8.03226 26.2192 8.43477C26.2027 8.64338 26.1774 8.75957 26.1368 8.83675C26.0994 8.9077 26.0496 8.94422 25.9906 8.98747C25.9844 8.99198 25.9782 8.99656 25.9718 9.00126L25.9573 8.98162ZM25.9573 8.98162C25.9968 8.95237 26.0305 8.92902 26.0592 8.90066C26.2303 8.73191 26.2266 8.3859 26.2266 5.56698C26.2266 2.71586 26.2302 2.30591 26.0343 2.15544C25.9963 2.12624 25.9508 2.10681 25.8963 2.08121M25.9573 8.98162C25.8154 9.08806 25.7645 9.08832 22.8795 9.10345L22.8577 9.10357C21.2317 9.11373 19.8038 9.10357 19.687 9.08832C19.5396 9.068 19.4177 9.00702 19.316 8.9054C19.189 8.77328 19.1636 8.71231 19.1636 8.50397C19.1636 8.30072 19.189 8.23466 19.3109 8.10763C19.3973 8.02633 19.5345 7.94503 19.626 7.92471C19.7124 7.90946 20.8252 7.89422 22.0904 7.89422C23.3607 7.89422 24.3973 7.87897 24.3973 7.86373C24.3973 7.70621 23.0609 6.31901 22.3902 5.78548C21.1351 4.7743 19.504 3.96637 17.8983 3.54971C16.5975 3.20926 14.6514 3.09747 13.3963 3.29056C9.39733 3.91048 6.15547 6.24279 4.41258 9.76414L25.8963 2.08121M25.8963 2.08121C25.6829 1.97958 25.5965 1.97958 25.3831 2.08121C25.3218 2.11088 25.2721 2.13443 25.2318 2.16893C25.0579 2.31756 25.0579 2.66957 25.0579 4.59137L25.8963 2.08121ZM25.0334 6.66622V4.59137V4.58609C25.0334 3.40685 25.0334 2.81768 25.0743 2.50424C25.0948 2.34711 25.126 2.25477 25.1759 2.19171C25.224 2.131 25.2877 2.10017 25.364 2.06328L25.3724 2.0592L25.3726 2.05913C25.4799 2.00802 25.559 1.98054 25.6397 1.98054C25.7204 1.98054 25.7994 2.00799 25.9067 2.05908L25.0334 6.66622Z" fill="#1D1D1D" stroke="#1D1D1D" stroke-width="0.0489053"/>
<path d="M26.9608 14.6285L26.9608 14.6285C26.9323 14.6635 26.9091 14.6956 26.8903 14.7336C26.8715 14.7716 26.8576 14.8146 26.8465 14.8711C26.8245 14.9831 26.813 15.1515 26.7978 15.4456M26.9608 14.6285L26.8222 15.4468M26.9608 14.6285L26.9613 14.6279C26.9986 14.5853 27.0499 14.542 27.1027 14.5068C27.1551 14.4718 27.2111 14.4435 27.2583 14.4323C27.4535 14.3797 27.6907 14.4318 27.8295 14.5599C27.9209 14.6432 27.9763 14.7503 28.0042 14.9175C28.032 15.0837 28.0331 15.3109 28.0153 15.6362L28.0153 15.6362C27.8321 18.9196 26.5084 21.8826 24.1921 24.1938M26.9608 14.6285L24.1749 24.1765M26.7978 15.4456L26.8222 15.4468M26.7978 15.4456C26.7978 15.4456 26.7978 15.4455 26.7978 15.4455L26.8222 15.4468M26.7978 15.4456C26.7014 17.2107 26.3059 18.742 25.5655 20.2378C23.8263 23.7518 20.5914 26.0793 16.6 26.6981M26.8222 15.4468C26.7257 17.2151 26.3293 18.7497 25.5875 20.2487C23.8446 23.77 20.6027 26.1023 16.6037 26.7222C15.3486 26.9153 13.4025 26.8035 12.1017 26.4631C10.496 26.0464 8.86491 25.2385 7.60983 24.2273C6.93909 23.6938 5.60271 22.3066 5.60271 22.1491C5.60271 22.1338 6.6393 22.1186 7.90962 22.1186C9.17487 22.1186 10.2877 22.1033 10.3741 22.0881C10.4655 22.0678 10.6027 21.9865 10.6891 21.9052C10.811 21.7781 10.8365 21.7121 10.8365 21.5088C10.8365 21.3005 10.811 21.2395 10.684 21.1074C10.5824 21.0058 10.4604 20.9448 10.3131 20.9245C10.1962 20.9092 8.76836 20.8991 7.14235 20.9092M16.6 26.6981C16.6 26.6981 16.6 26.6981 16.6 26.6981L16.6037 26.7222L16.6 26.6981ZM16.6 26.6981C15.3484 26.8906 13.4056 26.7791 12.1079 26.4394L12.1078 26.4394C10.5054 26.0236 8.87742 25.2172 7.62517 24.2083L7.62505 24.2082C7.29095 23.9424 6.79004 23.4632 6.37234 23.0302C6.16357 22.8138 5.97596 22.6094 5.84067 22.4494C5.77298 22.3694 5.7187 22.3009 5.68147 22.2477C5.66283 22.2211 5.6488 22.1988 5.63953 22.1811C5.63714 22.1766 5.63518 22.1725 5.63358 22.169M5.63358 22.169C5.62695 22.1695 5.62163 22.17 5.61758 22.1705C5.61386 22.1709 5.61199 22.1713 5.61138 22.1714C5.61089 22.1716 5.6121 22.1713 5.61393 22.1705C5.61477 22.1701 5.61716 22.1689 5.61969 22.1665C5.62218 22.1641 5.62716 22.1583 5.62716 22.1491C5.62716 22.1516 5.62859 22.1579 5.63358 22.169ZM5.63358 22.169C5.63869 22.1686 5.64456 22.1682 5.65122 22.1678C5.68167 22.1659 5.72682 22.1641 5.78527 22.1623C5.9021 22.1588 6.07121 22.1554 6.28013 22.1526C6.69793 22.1469 7.27454 22.143 7.90962 22.143C8.54233 22.143 9.13695 22.1392 9.58422 22.1335C9.80785 22.1307 9.99471 22.1273 10.1311 22.1237C10.1993 22.1219 10.255 22.1201 10.2964 22.1182C10.337 22.1164 10.3656 22.1144 10.3783 22.1122L10.3794 22.112L10.3794 22.112C10.4286 22.101 10.4882 22.0743 10.5458 22.0406C10.6037 22.0068 10.6611 21.9651 10.7059 21.923L10.7068 21.9221L10.7067 21.9221C10.7684 21.8579 10.808 21.8067 10.8314 21.7441C10.8546 21.682 10.8609 21.6109 10.8609 21.5088C10.8609 21.4043 10.8546 21.333 10.8307 21.2708C10.8066 21.2082 10.7656 21.157 10.7016 21.0905L10.7013 21.0901C10.5959 20.9847 10.469 20.9213 10.3164 20.9003L10.3162 20.9002C10.2853 20.8962 10.1722 20.8927 9.99741 20.8898C9.82158 20.8869 9.58123 20.8845 9.29378 20.8829C8.71885 20.8797 7.95529 20.8797 7.14219 20.8848M7.14219 20.8848H7.14222L7.14235 20.9092M7.14219 20.8848L7.14235 20.9092M7.14219 20.8848L7.11909 20.8849C5.68141 20.8924 4.94725 20.8963 4.55502 20.9115C4.35814 20.9191 4.24568 20.9296 4.17317 20.9454C4.09861 20.9616 4.06557 20.9835 4.02808 21.0116L4.04275 21.0312M7.14235 20.9092L7.12052 20.9094C4.23559 20.9245 4.18467 20.9247 4.04275 21.0312M4.04275 21.0312L4.0282 21.0115C4.02185 21.0162 4.0156 21.0208 4.00944 21.0253C3.95043 21.0686 3.90062 21.1051 3.86328 21.176C3.82265 21.2532 3.79736 21.3694 3.78083 21.578C3.74892 21.9805 3.74894 22.7414 3.74899 24.2671C3.74899 24.3255 3.74899 24.3851 3.74899 24.4458C3.74899 24.4977 3.74899 24.5488 3.74899 24.5991C3.74895 26.1976 3.74893 26.994 3.78848 27.4086C3.80883 27.6219 3.83993 27.7392 3.89046 27.8131C3.93714 27.8813 3.99928 27.9101 4.0718 27.9437C4.07888 27.947 4.08606 27.9503 4.09333 27.9537L4.10373 27.9316M4.04275 21.0312L4.10373 27.9316M4.10373 27.9316L4.09322 27.9537C4.20056 28.0048 4.27965 28.0323 4.36033 28.0323C4.44101 28.0323 4.52011 28.0048 4.62745 27.9537L4.6276 27.9536L4.6276 27.9536C4.63043 27.9522 4.63323 27.9509 4.63603 27.9495C4.71229 27.9126 4.77601 27.8818 4.82411 27.8211C4.87408 27.758 4.90526 27.6657 4.92574 27.5086C4.9666 27.1951 4.9666 26.6059 4.9666 25.4267V25.4214V23.3463M4.10373 27.9316C4.31714 28.0332 4.40353 28.0332 4.61694 27.9316C4.6782 27.9019 4.72793 27.8784 4.76828 27.8439C4.94214 27.6952 4.94214 27.3432 4.94214 25.4214V23.3219L4.9666 23.3463M4.9666 23.3463V23.3117L5.74499 24.0901M4.9666 23.3463L5.72764 24.1074M5.72764 24.1074L5.74499 24.0901M5.72764 24.1074L5.7277 24.1074L5.74499 24.0901M5.72764 24.1074C7.891 26.286 10.4062 27.5283 13.4248 27.9152L13.4248 27.9152C14.2703 28.0222 15.7968 28.0222 16.6323 27.9101M5.74499 24.0901C7.90454 26.2649 10.4147 27.5048 13.4279 27.8909C14.2714 27.9976 15.7958 27.9976 16.6291 27.8859M16.6323 27.9101C16.6323 27.9101 16.6323 27.9101 16.6323 27.9101L16.6291 27.8859M16.6323 27.9101C16.6323 27.9101 16.6324 27.9101 16.6324 27.9101L16.6291 27.8859M16.6323 27.9101C19.5543 27.5334 22.1202 26.2708 24.1921 24.1938M16.6291 27.8859C19.5458 27.5098 22.1068 26.2497 24.1749 24.1765M24.1749 24.1765L24.1921 24.1938M24.1749 24.1765L24.1922 24.1938C24.1922 24.1938 24.1921 24.1938 24.1921 24.1938" fill="#1D1D1D" stroke="#1D1D1D" stroke-width="0.0489053"/>
</svg>
