<svg width="30" height="30" viewBox="0 0 30 30" fill="none" xmlns="http://www.w3.org/2000/svg">
<path d="M6.66363 24.1655L6.66353 24.1656C5.93114 24.5632 5.00984 24.2981 4.59337 23.5757L5.03778 23.3195L4.59337 23.5757L2.64836 20.2021C2.23367 19.4829 2.46386 18.5493 3.17419 18.1145L4.52235 17.2886C4.64484 17.2134 4.7874 17.063 4.9005 16.8607C5.01363 16.6583 5.06692 16.4583 5.06683 16.3157V16.3156L5.0655 13.8296C5.0655 13.8296 5.0655 13.8296 5.0655 13.8295C5.06539 13.6858 5.01166 13.4857 4.89837 13.2837C4.78507 13.0817 4.64235 12.9315 4.51987 12.8564L3.17182 12.0303C3.17174 12.0303 3.17167 12.0302 3.1716 12.0302C2.46071 11.5948 2.23017 10.6641 2.64645 9.94268L2.64654 9.94252L4.59373 6.57048C4.59378 6.57038 4.59384 6.57028 4.5939 6.57018C5.00908 5.85053 5.93242 5.58405 6.66378 5.98092L6.66393 5.98101L8.05372 6.73574C8.05378 6.73577 8.05384 6.73581 8.05391 6.73584C8.18006 6.80423 8.38168 6.8525 8.61367 6.84941C8.84579 6.84633 9.04583 6.79267 9.16934 6.72148C9.16936 6.72147 9.16938 6.72146 9.1694 6.72145L11.3231 5.4796L11.3232 5.47957C11.4477 5.40779 11.5941 5.26149 11.7124 5.06262C11.8307 4.86375 11.8893 4.66528 11.8931 4.52186L11.8931 4.52179L11.9344 2.94077C11.9561 2.10789 12.6465 1.44242 13.4793 1.4419H13.4793L17.3737 1.43957C17.3737 1.43957 17.3737 1.43957 17.3737 1.43957C18.2048 1.43905 18.8974 2.1052 18.9196 2.93739L18.9196 2.93768L18.961 4.51913L18.961 4.51922C18.9647 4.66291 19.0236 4.8617 19.1423 5.06098C19.2609 5.26026 19.4075 5.40662 19.5312 5.4781L6.66363 24.1655ZM6.66363 24.1655L8.05386 23.4104C8.18017 23.3418 8.38163 23.2934 8.61324 23.2964C8.84483 23.2993 9.04505 23.353 9.1698 23.425L11.3228 24.668C11.4465 24.7395 11.5931 24.8859 11.7118 25.0852C11.8304 25.2845 11.8893 25.4833 11.8931 25.627L11.8931 25.6271L11.9344 27.2085L11.9344 27.2088C11.9566 28.041 12.6493 28.7071 13.4803 28.7066L17.3747 28.7043C18.2075 28.7038 18.8979 28.0383 18.9196 27.2055C18.9196 27.2055 18.9196 27.2054 18.9196 27.2054L18.9609 25.6244L18.961 25.6243C18.9647 25.4809 19.0234 25.2824 19.1416 25.0836C19.2599 24.8847 19.4063 24.7384 19.5308 24.6666L19.5309 24.6666L21.6846 23.4247C21.6847 23.4247 21.6847 23.4247 21.6847 23.4247C21.8082 23.3535 22.0082 23.2999 22.2404 23.2968C22.4724 23.2937 22.674 23.342 22.8001 23.4103C22.8002 23.4104 22.8003 23.4104 22.8003 23.4104L24.1901 24.1652L24.1903 24.1653C24.9216 24.5621 25.845 24.2956 26.2601 23.576C26.2602 23.5759 26.2603 23.5758 26.2603 23.5757L28.2075 20.2037L28.2076 20.2035C28.6239 19.482 28.3933 18.5511 27.6822 18.1158L26.3342 17.2898C26.2117 17.2147 26.069 17.0645 25.9557 16.8624C25.8424 16.6604 25.7886 16.4604 25.7885 16.3166C25.7885 16.3166 25.7885 16.3166 25.7885 16.3166L25.7872 13.8306V13.8305C25.7871 13.6879 25.8404 13.4879 25.9535 13.2855C26.0666 13.0832 26.2092 12.9327 26.3317 12.8576L27.6798 12.0317C28.3902 11.5969 28.6204 10.6633 28.2057 9.94416C28.2057 9.94415 28.2057 9.94414 28.2057 9.94412L26.2607 6.57047L25.7751 6.85039L26.2607 6.57046C25.8442 5.84812 24.9229 5.58298 24.1905 5.9806L24.1904 5.98065L22.8002 6.73578C22.8001 6.73579 22.8001 6.73581 22.8001 6.73582C22.6738 6.80438 22.4724 6.85281 22.2408 6.84983C22.0093 6.84685 21.8091 6.79325 21.6843 6.72127C21.6843 6.72126 21.6843 6.72124 21.6842 6.72123L19.5312 5.47814L6.66363 24.1655ZM12.8379 19.5572L12.8379 19.5572C10.3615 18.1277 9.51294 14.961 10.943 12.4841L10.943 12.4841C12.3725 10.0077 15.5391 9.15914 18.016 10.5892L18.0161 10.5892C20.4925 12.0187 21.341 15.1853 19.911 17.6622L19.911 17.6623C18.4815 20.1387 15.3148 20.9872 12.8379 19.5572Z" stroke="#1D1D1D" stroke-width="1.12087"/>
</svg>
