<svg width="30" height="30" viewBox="0 0 30 30" fill="none" xmlns="http://www.w3.org/2000/svg">
<path d="M13.7437 1.03591C11.0363 1.29898 8.53716 2.29645 6.34493 3.98446C5.27622 4.80655 3.88963 6.35207 3.08947 7.6126C2.74419 8.15518 2.07008 9.53629 1.82894 10.194C1.56039 10.9284 1.26992 12.0574 1.12742 12.9288C0.957526 13.9975 0.957526 16.0253 1.12742 17.094C1.37405 18.6066 1.76317 19.8233 2.42632 21.177C3.14976 22.6513 3.9006 23.6981 5.10632 24.9093C6.31753 26.115 7.36432 26.8659 8.83859 27.5893C10.1923 28.2525 11.409 28.6416 12.9216 28.8882C13.9903 29.0581 16.0182 29.0581 17.0869 28.8882C18.5995 28.6416 19.8162 28.2525 21.1699 27.5893C22.6442 26.8659 23.691 26.115 24.9022 24.9093C26.1079 23.6981 26.8587 22.6513 27.5822 21.177C28.0645 20.196 28.3056 19.5548 28.5687 18.5683C28.9139 17.2529 28.9962 16.535 28.9962 15.0114C28.9962 13.4878 28.9139 12.7698 28.5687 11.4545C28.3056 10.468 28.0645 9.82676 27.5822 8.84573C26.8587 7.37146 26.1079 6.32467 24.9022 5.11346C23.691 3.90773 22.6442 3.1569 21.1699 2.43346C19.8217 1.77031 18.5721 1.37571 17.1143 1.14552C16.3086 1.01947 14.511 0.959185 13.7437 1.03591ZM16.4292 2.19231C18.7968 2.43894 21.2357 3.45833 23.1429 5.00933C23.7951 5.54095 24.798 6.57678 25.2913 7.23444C26.6505 9.04852 27.5054 11.1366 27.8069 13.3946C27.911 14.1783 27.911 15.8444 27.8069 16.6282C27.4835 19.0341 26.5189 21.2866 25.0063 23.15C24.4747 23.8022 23.4389 24.8052 22.7812 25.2984C20.9671 26.6576 18.879 27.5126 16.621 27.814C15.8373 27.9181 14.1712 27.9181 13.3875 27.814C11.1295 27.5126 9.04138 26.6576 7.22731 25.2984C6.56964 24.8052 5.53381 23.8022 5.00219 23.15C3.48955 21.2866 2.52497 19.0341 2.20162 16.6282C2.09749 15.8444 2.09749 14.1783 2.20162 13.3946C2.38796 11.9916 2.78804 10.6488 3.37994 9.44312C4.04857 8.06749 4.71172 7.11935 5.74207 6.0616C6.84915 4.91616 7.88497 4.15984 9.30992 3.44737C11.5296 2.34577 13.8972 1.92925 16.4292 2.19231Z" fill="#1D1D1D"/>
<path d="M14.9207 20.5034C14.6044 20.6216 14.4375 20.858 14.4375 21.1847C14.4375 21.9217 15.4247 22.1546 15.7619 21.4941C15.8558 21.3099 15.8488 21.0318 15.748 20.8371C15.5985 20.5555 15.2057 20.3991 14.9207 20.5034Z" fill="#1D1D1D"/>
<path d="M14.3151 8.2682C12.649 8.64088 11.4324 9.96718 11.2241 11.6388C11.1474 12.2197 11.2186 12.4499 11.5036 12.5869C11.679 12.6746 11.7393 12.6801 11.9037 12.6253C12.1722 12.5376 12.2599 12.3732 12.3202 11.8799C12.4189 11.0852 12.6929 10.5426 13.2355 10.0384C13.9699 9.3698 15.0057 9.14509 15.9758 9.44105C16.3375 9.55066 16.8581 9.89045 17.1541 10.2083C17.9597 11.0797 18.1241 12.2361 17.6144 13.3597C17.4171 13.7817 16.9897 14.2201 16.3594 14.6312C15.4277 15.2505 14.8577 16.0013 14.6495 16.9001C14.5892 17.1413 14.5618 17.5413 14.5618 18.1442V19.0375L14.7152 19.2074C14.8468 19.3499 14.9125 19.3828 15.1098 19.3828C15.3071 19.3828 15.3729 19.3499 15.5044 19.2074C15.6579 19.0375 15.6579 19.0321 15.6579 18.2703C15.6579 17.3879 15.7182 17.0481 15.9374 16.6261C16.1566 16.2096 16.4635 15.9081 17.1102 15.4752C18.3927 14.6147 19.0065 13.5186 19.012 12.0772C19.012 11.0797 18.6777 10.2248 17.9871 9.45749C17.0938 8.4655 15.6031 7.98321 14.3151 8.2682Z" fill="#1D1D1D"/>
</svg>
