<svg width="30" height="30" viewBox="0 0 30 30" fill="none" xmlns="http://www.w3.org/2000/svg">
<path d="M3.48834 3.30057L3.35162 3.4316V4.69276V5.94847H2.36725C1.32272 5.94847 1.16413 5.98122 1.06022 6.20506C1.01647 6.29788 1.00007 9.08226 1.00007 17.1906C1.00007 27.7058 0.98913 27.2908 1.24616 27.3891C1.36647 27.4328 28.6335 27.4328 28.7538 27.3891C29.0109 27.2908 28.9999 27.7058 28.9999 17.1906C28.9999 9.08226 28.9835 6.29788 28.9398 6.20506C28.8359 5.98122 28.6773 5.94847 27.6328 5.94847H26.6484V4.69276V3.4316L26.5117 3.30057C26.3476 3.13132 26.2054 3.12586 24.7289 3.27327C22.8312 3.46436 21.3765 3.72642 19.7851 4.16864C18.3961 4.55627 17.4172 4.90023 15.7273 5.60451L15.0055 5.89933L13.9773 5.47894C10.8219 4.18502 8.27894 3.55171 4.9977 3.24598C3.75084 3.13132 3.64693 3.13678 3.48834 3.30057ZM6.19535 4.31059C8.57972 4.61633 11.0078 5.27148 13.4414 6.26512L14.4805 6.69097L14.4969 16.9777L14.5078 26.2644L13.6492 25.9096C10.9914 24.8231 8.37738 24.1625 5.56098 23.8732C4.9813 23.8131 4.45083 23.764 4.39068 23.764C4.2813 23.764 4.2813 23.764 4.2813 14.4499V4.13043L4.81724 4.16864C5.10708 4.19048 5.73051 4.256 6.19535 4.31059ZM25.7187 14.4445V23.7476L24.9968 23.8131C21.9507 24.0861 19.0961 24.7794 16.3508 25.9096L15.4922 26.2644L15.5031 16.9777L15.5195 6.69097L16.5586 6.26512C19.0086 5.26602 21.4367 4.61087 23.8046 4.31605C24.975 4.1741 25.0351 4.16318 25.407 4.15772L25.7187 4.1468V14.4445ZM3.35162 16.0987C3.35162 21.5965 3.36802 24.3536 3.40631 24.4191C3.50474 24.5993 3.63599 24.632 4.61489 24.7194C6.5727 24.8941 8.05472 25.1343 9.58596 25.5329C10.3297 25.7239 11.7844 26.1826 12.293 26.3791L12.5664 26.4883L7.25082 26.4937H1.92975V17.1852V6.87659H2.64068H3.35162V16.0987ZM28.0702 17.1852V26.4937H22.7547C19.8344 26.4937 17.4555 26.4828 17.4664 26.4719C17.5211 26.4173 19.1562 25.8823 19.8672 25.6857C21.7047 25.1725 23.2086 24.905 25.3578 24.7194C26.3749 24.6266 26.5007 24.5993 26.5937 24.4191C26.632 24.3536 26.6484 21.5965 26.6484 16.0987V6.87659H27.3593H28.0702V17.1852Z" fill="#1D1D1D"/>
</svg>
