<svg id="Layer_1" data-name="Layer 1" xmlns="http://www.w3.org/2000/svg" width="45" height="45" viewBox="0 0 45 45"><defs><style>.cls-1{fill:#424b5a;}</style></defs><title>graph (1) 45</title><path class="cls-1" d="M5.36,42.5H41.55a.94.94,0,0,0,.82-.48.95.95,0,0,0-.82-1.42H40.6V24.4a1.91,1.91,0,0,0-1.91-1.9H33a1.91,1.91,0,0,0-1.91,1.9V40.6H28.21V18.69a1.88,1.88,0,0,0-1.9-1.9H20.6a1.89,1.89,0,0,0-1.91,1.9V40.6H15.83V28.21a1.89,1.89,0,0,0-1.9-1.9H8.21a1.91,1.91,0,0,0-1.9,1.9V40.6H5.36a1,1,0,0,1-1-1V13.93H7.26a1,1,0,1,0,0-1.91H4.4v-1.9H9.17A.94.94,0,0,0,10,9.64a1,1,0,0,0,0-1,1,1,0,0,0-.82-.48H4.4V6.31H7.26a1,1,0,0,0,.83-1.43,1,1,0,0,0-.83-.48H4.4v-1A.95.95,0,0,0,3,2.63a.94.94,0,0,0-.48.82V39.64A2.87,2.87,0,0,0,5.36,42.5Z"/><path class="cls-1" d="M35.83,19.64a3.81,3.81,0,1,0-2.78-6.39l-5.91-3.18h0a3.48,3.48,0,0,0,.12-.9,3.81,3.81,0,1,0-7.33,1.45l-5.55,4.15A3.74,3.74,0,0,0,12,13.93a3.82,3.82,0,1,0,1,7.51,3.85,3.85,0,0,0,2.44-2,3.81,3.81,0,0,0,.11-3.15l5.54-4.16a3.74,3.74,0,0,0,5.15-.38l5.91,3.18a4,4,0,0,0-.13.9,3.86,3.86,0,0,0,1.12,2.7,3.81,3.81,0,0,0,2.69,1.11Z"/></svg>