<?xml version="1.0" encoding="utf-8"?>
<!-- Generator: Adobe Illustrator 25.2.1, SVG Export Plug-In . SVG Version: 6.00 Build 0)  -->
<svg version="1.1"
	 id="Layer_1" xmlns:cc="http://creativecommons.org/ns#" xmlns:dc="http://purl.org/dc/elements/1.1/" xmlns:inkscape="http://www.inkscape.org/namespaces/inkscape" xmlns:rdf="http://www.w3.org/1999/02/22-rdf-syntax-ns#" xmlns:sodipodi="http://sodipodi.sourceforge.net/DTD/sodipodi-0.dtd" xmlns:svg="http://www.w3.org/2000/svg"
	 xmlns="http://www.w3.org/2000/svg" xmlns:xlink="http://www.w3.org/1999/xlink" x="0px" y="0px" viewBox="0 0 100 100"
	 style="enable-background:new 0 0 100 100;" xml:space="preserve">
<style type="text/css">
	.st0{fill:#404B5B;}
</style>
<g transform="translate(0,-288.53332)">
	<path class="st0" d="M50,293.2c-25,0-45.3,20.3-45.3,45.3c0,25,20.3,45.3,45.3,45.3s45.3-20.3,45.3-45.3
		C95.3,313.5,75,293.2,50,293.2z M51.6,300.7c2.2,0.1,4.5,0.4,6.7,0.9l-0.7,2.6c-0.3,0.8,0.2,1.7,1,2c0.8,0.3,1.7-0.2,2-1
		c0-0.1,0-0.1,0-0.2l0.7-2.6c0.5,0.2,1,0.3,1.5,0.5c1.7,0.6,3.3,1.3,4.8,2.1l-3.6,6.2c-1.1-0.6-2.3-1.2-3.6-1.6
		c-2.9-1.1-5.9-1.7-8.9-1.8L51.6,300.7z M48.4,300.7v7c-4.3,0.2-8.6,1.4-12.5,3.4l-3.5-6.1c2-1.1,4.1-2,6.2-2.6l0.7,2.6
		c0.2,0.8,1.1,1.3,1.9,1.1c0.8-0.2,1.3-1.1,1.1-1.9c0,0,0,0,0,0l-0.7-2.6C43.9,301.1,46.2,300.8,48.4,300.7L48.4,300.7z M70.3,306.5
		c1.9,1.2,3.7,2.6,5.3,4.2l-1.8,1.9c-0.6,0.6-0.6,1.6,0,2.2s1.6,0.6,2.2,0c0,0,0,0,0,0l1.8-1.8c1.5,1.7,2.9,3.5,4.1,5.4l-6.3,3.6
		c0,0-0.1,0-0.1,0.1c-2.2-3.7-5.2-6.8-8.8-9.2L70.3,306.5z M29.7,306.6l3.6,6.2c-2.4,1.6-4.6,3.6-6.6,5.9c-0.9,1.1-1.6,2.2-2.3,3.3
		c0,0,0,0,0,0l-6.4-3.7c0.9-1.4,1.8-2.7,2.9-4c0.4-0.5,0.8-0.9,1.3-1.3l1.8,1.9c0.6,0.6,1.6,0.6,2.2,0c0.6-0.6,0.6-1.6,0-2.2l0,0
		l-1.9-1.9C26,309.1,27.8,307.8,29.7,306.6L29.7,306.6z M50,316.7l4.6,27.1c1,1.1,1.6,2.6,1.6,4.2c0,3.5-2.8,6.3-6.2,6.3
		c0,0,0,0,0,0c-3.5,0-6.2-2.8-6.2-6.3l0,0c0-1.5,0.6-3,1.6-4.2L50,316.7z M16.4,321l6.4,3.7c0,0,0.1,0,0.1,0.1
		c-1.9,3.9-2.8,8.1-2.9,12.3c-0.2-0.1-0.3-0.1-0.5-0.1h-7.3c0.1-2.3,0.4-4.5,0.8-6.7l2.5,0.7c0.8,0.2,1.7-0.3,1.9-1.1
		c0.2-0.8-0.3-1.7-1.1-1.9l-2.5-0.7C14.5,325.1,15.4,323,16.4,321L16.4,321z M83.5,321c1,2,1.9,4.1,2.5,6.3l-2.4,0.6
		c-0.8,0.2-1.3,1.1-1.1,1.9c0.2,0.8,1.1,1.3,1.9,1.1c0,0,0,0,0,0l2.4-0.6c0.5,2.2,0.8,4.5,0.9,6.8l-7.8,0.1
		c-0.1-4.4-1.1-8.6-2.9-12.4c0.1,0,0.1-0.1,0.2-0.1L83.5,321z M20.1,340c0.3,4.3,1.6,8.5,3.8,12.4l-7.1,4c-1.1-2.1-2-4.3-2.8-6.6
		l2.4-0.6c0.8-0.2,1.4-1,1.2-1.9c-0.2-0.7-0.8-1.2-1.5-1.2c-0.1,0-0.3,0-0.4,0.1l-2.4,0.7c-0.5-2.2-0.8-4.4-0.9-6.7h7.3
		C19.7,340.1,19.9,340.1,20.1,340L20.1,340z"/>
</g>
</svg>
