<svg height='100px' width='100px'  fill="#404b5b" xmlns="http://www.w3.org/2000/svg" version="1.1" viewBox="0 0 24 24" x="0px" y="0px"><path d="m11.699219 3-0.173828 1.0253906a9.0205551 9.3090911 0 0 0-8.525391 8.8691404h0.064453a3.0068517 1.8618182 0 0 1 2.9238282-1.447265 3.0068517 1.8618182 0 0 1 2.9667969 1.552734h0.085937a3.0068517 1.8618182 0 0 1 2.4589849-1.525391v7.525391a1 1 0 0 1-1 1 1 1 0 0 1-1-1v-1h-1v1a2 2 0 0 0 2 2 2 2 0 0 0 2-2v-7.525391a3.0068517 1.8618182 0 0 1 2.46875 1.525391h0.08594a3.0068517 1.8618182 0 0 1 2.96289-1.552734 3.0068517 1.8618182 0 0 1 2.927734 1.447265h0.054686a9.0205551 9.3090911 0 0 0-8.525391-8.8710935l-0.175781-1.0234375z" style="paint-order:stroke fill markers;" fill="#404b5b"></path></svg>