<?xml version="1.0" encoding="utf-8"?>
<!-- Generator: Adobe Illustrator 25.2.1, SVG Export Plug-In . SVG Version: 6.00 Build 0)  -->
<svg version="1.1" id="Layer_1" xmlns="http://www.w3.org/2000/svg" xmlns:xlink="http://www.w3.org/1999/xlink" x="0px" y="0px"
	 viewBox="0 0 32 32" style="enable-background:new 0 0 32 32;" xml:space="preserve">
<style type="text/css">
	.st0{fill-rule:evenodd;clip-rule:evenodd;fill:#FFFFFF;}
	.st1{filter:url(#Adobe_OpacityMaskFilter);}
	.st2{mask:url(#mask-2_1_);fill-rule:evenodd;clip-rule:evenodd;fill:#404B5B;}
	.st3{filter:url(#Adobe_OpacityMaskFilter_1_);}
	.st4{mask:url(#mask-4_1_);fill-rule:evenodd;clip-rule:evenodd;fill:#404B5B;}
	.st5{fill-rule:evenodd;clip-rule:evenodd;fill:#404B5B;}
</style>
<g id="Welcome">
	<g id="Driver-dashboard_with-My-Reimbursement" transform="translate(-986.000000, -685.000000)">
		<g id="Group-11" transform="translate(986.000000, 685.000000)">
			<path id="Fill-1" class="st0" d="M24.4,20.9c-0.4,0-0.7,0.3-0.7,0.7c0,0.4,0.3,0.7,0.7,0.7s0.7-0.3,0.7-0.7
				C25.2,21.2,24.8,20.9,24.4,20.9"/>
			<g id="Group-5" transform="translate(0.000000, 9.487127)">
				<defs>
					<filter id="Adobe_OpacityMaskFilter" filterUnits="userSpaceOnUse" x="2" y="1.1" width="23.6" height="19.3">
						<feColorMatrix  type="matrix" values="1 0 0 0 0  0 1 0 0 0  0 0 1 0 0  0 0 0 1 0"/>
					</filter>
				</defs>
				<mask maskUnits="userSpaceOnUse" x="2" y="1.1" width="23.6" height="19.3" id="mask-2_1_">
					<g class="st1">
						<polygon id="path-1_1_" class="st0" points="2,1.1 25.6,1.1 25.6,20.4 2,20.4 						"/>
					</g>
				</mask>
				<path id="Fill-3" class="st2" d="M6.5,14c-0.8,0-1.4-0.6-1.4-1.4c0-0.8,0.7-1.4,1.4-1.4c0.8,0,1.5,0.6,1.5,1.4
					C8,13.3,7.4,14,6.5,14L6.5,14z M19.9,14.2c-0.8,0-1.4-0.6-1.4-1.4V8.2H6.1c0.4-1.3,1-2.9,1.5-4.2C7.8,3.4,8.3,3,9,2.9h9.5V1.1
					H8.7c-1.1,0.4-2,1.1-2.7,2.3L4.4,7.8H2.3C2.1,7.8,2,8,2,8.1V9c0,0.2,0.1,0.3,0.3,0.3h1.3c-0.4,0.4-0.7,1-1.1,1.6
					c0,2.7,0,5.4,0,8.1c0,0.7,0.6,1.3,1.3,1.3h0.9c0.7,0,1.3-0.6,1.3-1.3v-1.6h16.2v1.6c0,0.7,0.6,1.3,1.3,1.3h0.9
					c0.7,0,1.3-0.6,1.3-1.3c0-1.6,0-3.3,0-4.9H19.9z"/>
			</g>
			<g id="Group-8" transform="translate(19.200000, 0.275006)">
				<defs>
					<filter id="Adobe_OpacityMaskFilter_1_" filterUnits="userSpaceOnUse" x="-0.3" y="2.1" width="11.1" height="20.8">
						<feColorMatrix  type="matrix" values="1 0 0 0 0  0 1 0 0 0  0 0 1 0 0  0 0 0 1 0"/>
					</filter>
				</defs>
				<mask maskUnits="userSpaceOnUse" x="-0.3" y="2.1" width="11.1" height="20.8" id="mask-4_1_">
					<g class="st3">
						<polygon id="path-3_1_" class="st0" points="-0.3,2.1 10.8,2.1 10.8,23 -0.3,23 						"/>
					</g>
				</mask>
				<path id="Fill-6" class="st4" d="M9.8,19.7H6.7H0.7V17v-5.2V10V4.5h9.1V19.7z M5.2,22c-0.4,0-0.7-0.3-0.7-0.7
					c0-0.4,0.3-0.7,0.7-0.7c0.4,0,0.7,0.3,0.7,0.7C6,21.7,5.6,22,5.2,22L5.2,22z M3.6,3.1h3.4c0.1,0,0.2,0.1,0.2,0.2
					S7.1,3.6,6.9,3.6H3.6c-0.1,0-0.2-0.1-0.2-0.2S3.4,3.1,3.6,3.1L3.6,3.1z M9.3,2.1H1.2c-0.8,0-1.4,0.6-1.4,1.4v6.3v1.8V17v4.6
					c0,0.8,0.6,1.4,1.4,1.4h5.7h2.5c0.8,0,1.4-0.6,1.4-1.4v-18C10.8,2.8,10.1,2.1,9.3,2.1L9.3,2.1z"/>
			</g>
			<path id="Fill-9" class="st5" d="M24.1,15.1c-0.3,0-0.6,0-0.8-0.1c-0.4-0.1-0.7-0.2-1.1-0.4l-0.3,1.3c0.6,0.3,1.3,0.5,1.9,0.5
				c0,0,0,0,0,0v0v1.1H25v-0.7v-0.5c1.3-0.2,2-1.1,2-2.1c0-1-0.5-1.7-1.9-2.2c-1-0.4-1.4-0.6-1.4-1c0-0.3,0.2-0.7,1-0.7
				c0.6,0,1.1,0.1,1.7,0.4l0.3-1.3c-0.5-0.2-1.1-0.4-1.7-0.4v-1h-1.1v1.1c-1.2,0.2-1.9,1-1.9,2.1c0,1.1,0.8,1.7,2.1,2.1
				c0.9,0.3,1.2,0.6,1.2,1C25.2,14.8,24.8,15.1,24.1,15.1"/>
		</g>
	</g>
</g>
</svg>
