<?xml version="1.0" encoding="UTF-8"?>
<svg xmlns="http://www.w3.org/2000/svg" xmlns:xlink="http://www.w3.org/1999/xlink" width="45pt" height="45pt" viewBox="0 0 45 45" version="1.1">
<g id="surface1">
<path style=" stroke:none;fill-rule:nonzero;fill:rgb(25.098039%,29.411765%,35.686275%);fill-opacity:1;" d="M 32.949219 27.871094 C 32.953125 30.871094 33.453125 33.457031 34.335938 35.394531 C 35.203125 37.289062 36.546875 38.765625 38.457031 38.804688 C 39.324219 38.804688 40.171875 38.449219 40.914062 37.851562 C 41.914062 37.082031 42.390625 35.910156 42.363281 34.820312 C 42.335938 33.113281 41.582031 31.46875 40.90625 29.484375 C 40.21875 27.515625 39.5625 25.269531 39.535156 22.636719 C 39.535156 22.566406 39.53125 22.542969 39.53125 22.542969 C 39.539062 21.167969 39.820312 20.410156 40.171875 19.410156 C 40.53125 18.425781 40.953125 17.203125 40.945312 15.429688 C 40.945312 14.996094 40.921875 14.523438 40.871094 14.011719 C 41 14.007812 41.128906 14 41.253906 13.992188 C 41.0625 10.667969 40.050781 7.46875 38.332031 4.667969 C 37.886719 4.9375 37.445312 5.210938 37 5.484375 C 36.367188 4.449219 35.628906 3.476562 34.792969 2.578125 C 34.222656 3.109375 33.648438 3.636719 33.078125 4.167969 C 33.808594 4.953125 34.453125 5.804688 35.007812 6.707031 C 35.421875 7.386719 35.785156 8.089844 36.097656 8.816406 C 36.820312 10.519531 37.253906 12.34375 37.359375 14.214844 C 37.78125 14.191406 38.203125 14.164062 38.621094 14.144531 C 38.671875 14.625 38.695312 15.054688 38.695312 15.433594 C 38.6875 16.875 38.40625 17.664062 38.054688 18.65625 C 37.703125 19.632812 37.277344 20.824219 37.28125 22.546875 C 37.28125 22.617188 37.285156 22.660156 37.285156 22.679688 C 37.3125 25.660156 38.066406 28.179688 38.78125 30.226562 C 39.507812 32.261719 40.136719 33.886719 40.109375 34.820312 C 40.085938 35.417969 39.996094 35.671875 39.503906 36.101562 C 39.050781 36.460938 38.714844 36.550781 38.453125 36.550781 C 37.953125 36.589844 37.101562 36.03125 36.382812 34.460938 C 35.675781 32.929688 35.191406 30.609375 35.195312 27.871094 C 35.195312 27.324219 35.214844 26.757812 35.257812 26.175781 C 35.378906 24.328125 35.433594 22.726562 35.4375 21.328125 C 35.421875 16.929688 34.910156 14.578125 33.933594 13.101562 C 33.246094 12.03125 32.238281 11.652344 31.433594 11.527344 L 31.433594 4.5 C 31.433594 2.015625 29.417969 0 26.933594 0 L 10.738281 0 C 8.25 0 6.238281 2.015625 6.238281 4.5 L 6.238281 40.5 L 2.636719 40.5 L 2.636719 45 L 35.035156 45 L 35.035156 40.5 L 31.4375 40.5 L 31.4375 13.816406 C 31.648438 13.890625 31.832031 14.039062 32.078125 14.363281 C 32.601562 15.09375 33.203125 17.113281 33.1875 21.328125 C 33.1875 22.660156 33.132812 24.214844 33.015625 26.023438 C 32.972656 26.652344 32.949219 27.269531 32.949219 27.871094 Z M 27.835938 17.101562 L 9.835938 17.101562 L 9.835938 8.101562 L 27.835938 8.101562 Z M 27.835938 17.101562 "/>
</g>
</svg>
