<svg id="Layer_1" data-name="Layer 1" xmlns="http://www.w3.org/2000/svg" width="45" height="45" viewBox="0 0 45 45"><defs><style>.cls-1{fill:#404b5b;}</style></defs><title>Profile_fuel pump (2) 45</title><path class="cls-1" d="M31.39,27.07a15.73,15.73,0,0,0,1.18,6.4c.74,1.61,1.88,2.87,3.5,2.9a3.39,3.39,0,0,0,2.1-.81A3.17,3.17,0,0,0,39.4,33a15.83,15.83,0,0,0-1.24-4.54A18.09,18.09,0,0,1,37,22.62v-.08a7.14,7.14,0,0,1,.55-2.67,9.13,9.13,0,0,0,.65-3.38c0-.37,0-.78-.06-1.21l.33,0A17.12,17.12,0,0,0,36,7.33L34.84,8A15.48,15.48,0,0,0,33,5.55L31.5,6.9a14.13,14.13,0,0,1,1.64,2.16,15.32,15.32,0,0,1,.93,1.8,13.86,13.86,0,0,1,1.07,4.59l1.08-.06c0,.41.06.77.06,1.1a7.27,7.27,0,0,1-.55,2.74,8.81,8.81,0,0,0-.65,3.31v.11a19.73,19.73,0,0,0,1.27,6.42A15.16,15.16,0,0,1,37.48,33,1.24,1.24,0,0,1,37,34.07a1.5,1.5,0,0,1-.9.39c-.42,0-1.15-.45-1.76-1.78a14,14,0,0,1-1-5.61c0-.47,0-.95.05-1.44.11-1.57.15-2.94.16-4.13,0-3.74-.45-5.74-1.28-7a2.94,2.94,0,0,0-2.13-1.34v-6a3.82,3.82,0,0,0-3.83-3.83H12.49A3.83,3.83,0,0,0,8.66,7.19V37.81H5.6v3.83H33.17V37.81H30.1V15.11a1.24,1.24,0,0,1,.55.47c.44.62,1,2.34.94,5.92,0,1.14,0,2.46-.15,4C31.41,26,31.39,26.56,31.39,27.07ZM27,17.91H11.73V10.25H27Z"/></svg>