<?xml version="1.0" encoding="UTF-8"?>
<svg xmlns="http://www.w3.org/2000/svg" xmlns:xlink="http://www.w3.org/1999/xlink" width="45pt" height="45pt" viewBox="0 0 45 45" version="1.1">
<g id="surface1">
<path style=" stroke:none;fill-rule:nonzero;fill:rgb(25.098039%,29.411765%,35.686275%);fill-opacity:1;" d="M 33.839844 35.773438 C 33.75 35.863281 33.613281 35.953125 33.480469 36 C 32.804688 36.449219 32.085938 36.71875 31.320312 36.898438 C 26.953125 37.84375 20.609375 37.933594 20.609375 37.933594 L 20.25 37.933594 C 19.980469 37.933594 19.710938 37.753906 19.664062 37.484375 C 19.621094 37.171875 19.84375 36.898438 20.160156 36.898438 L 29.609375 36 C 30.644531 35.863281 31.5 34.921875 31.363281 33.839844 C 31.230469 32.761719 30.238281 31.949219 29.203125 32.039062 L 20.789062 31.949219 C 20.203125 31.949219 19.304688 31.816406 18.765625 31.636719 C 13.363281 30.058594 10.304688 31.546875 8.683594 32.21875 C 8.324219 31.636719 7.648438 31.230469 6.886719 31.273438 L 3.238281 31.5 C 2.023438 31.589844 1.125 32.578125 1.214844 33.75 L 1.753906 41.851562 C 1.84375 43.019531 2.878906 43.875 4.09375 43.785156 L 7.738281 43.558594 C 8.503906 43.515625 9.136719 43.019531 9.40625 42.390625 L 25.335938 43.066406 C 27.089844 43.246094 28.753906 43.019531 30.328125 42.210938 L 30.78125 41.984375 L 42.796875 34.964844 C 43.378906 34.605469 43.785156 34.019531 43.828125 33.34375 C 43.875 32.535156 43.378906 31.636719 42.253906 31.546875 C 41.398438 31.5 39.734375 32.398438 39.285156 32.625 C 37.621094 33.480469 35.324219 34.738281 33.839844 35.773438 Z M 5.445312 41.894531 C 4.769531 41.894531 4.230469 41.355469 4.230469 40.726562 C 4.230469 40.09375 4.769531 39.554688 5.445312 39.554688 C 6.121094 39.554688 6.660156 40.09375 6.660156 40.726562 C 6.660156 41.355469 6.121094 41.894531 5.445312 41.894531 Z M 40.183594 30.511719 C 39.691406 30.691406 39.238281 30.914062 38.835938 31.09375 C 37.394531 31.816406 34.921875 33.164062 33.660156 34.019531 C 33.523438 34.109375 33.390625 34.199219 33.300781 34.289062 C 33.300781 34.066406 33.300781 33.839844 33.300781 33.613281 C 33.253906 33.34375 33.210938 33.074219 33.121094 32.804688 L 33.121094 32.761719 C 34.378906 32.085938 36.855469 30.871094 38.25 30.328125 C 38.878906 30.105469 39.554688 30.105469 40.183594 30.511719 Z M 31.453125 30.78125 C 32.265625 30.328125 34.15625 29.746094 34.964844 29.386719 C 35.640625 29.113281 36.316406 29.113281 36.898438 29.519531 C 35.910156 29.96875 34.019531 30.601562 33.121094 31.09375 L 32.488281 31.410156 C 32.445312 31.453125 32.398438 31.5 32.308594 31.5 C 32.128906 31.273438 31.769531 31.003906 31.453125 30.78125 Z M 25.246094 10.351562 C 19.933594 10.351562 15.660156 14.671875 15.660156 19.933594 C 15.660156 25.199219 19.980469 29.519531 25.246094 29.519531 C 30.554688 29.519531 34.828125 25.199219 34.828125 19.933594 C 34.828125 14.671875 30.554688 10.351562 25.246094 10.351562 Z M 27.988281 23.761719 C 27.585938 24.253906 27.046875 24.613281 26.371094 24.796875 C 26.101562 24.886719 25.964844 25.019531 25.964844 25.289062 C 25.964844 25.558594 25.964844 25.875 25.964844 26.144531 C 25.964844 26.414062 25.828125 26.550781 25.605469 26.550781 C 25.289062 26.550781 24.976562 26.550781 24.703125 26.550781 C 24.433594 26.550781 24.300781 26.414062 24.300781 26.144531 C 24.300781 25.921875 24.300781 25.738281 24.300781 25.515625 C 24.300781 25.066406 24.300781 25.019531 23.851562 24.976562 C 23.265625 24.886719 22.726562 24.75 22.230469 24.523438 C 21.824219 24.34375 21.78125 24.210938 21.914062 23.804688 C 22.003906 23.488281 22.09375 23.175781 22.183594 22.859375 C 22.320312 22.5 22.410156 22.453125 22.726562 22.636719 C 23.308594 22.949219 23.894531 23.085938 24.523438 23.175781 C 24.929688 23.21875 25.335938 23.175781 25.695312 23.039062 C 26.414062 22.726562 26.503906 21.914062 25.921875 21.421875 C 25.695312 21.238281 25.46875 21.148438 25.246094 21.015625 C 24.613281 20.746094 23.984375 20.519531 23.398438 20.203125 C 22.453125 19.621094 21.871094 18.855469 21.914062 17.683594 C 22.003906 16.378906 22.726562 15.570312 23.941406 15.121094 C 24.433594 14.941406 24.433594 14.941406 24.433594 14.445312 C 24.433594 14.265625 24.433594 14.085938 24.433594 13.90625 C 24.433594 13.5 24.523438 13.453125 24.886719 13.453125 C 25.019531 13.453125 25.109375 13.453125 25.246094 13.453125 C 26.054688 13.453125 26.054688 13.453125 26.054688 14.265625 C 26.054688 14.851562 26.054688 14.851562 26.640625 14.941406 C 27.089844 15.03125 27.496094 15.121094 27.898438 15.300781 C 28.125 15.390625 28.214844 15.570312 28.125 15.796875 C 28.035156 16.15625 27.945312 16.515625 27.808594 16.875 C 27.71875 17.191406 27.585938 17.234375 27.269531 17.101562 C 26.640625 16.785156 25.964844 16.648438 25.246094 16.695312 C 25.066406 16.695312 24.886719 16.738281 24.703125 16.785156 C 24.074219 17.054688 23.984375 17.730469 24.523438 18.136719 C 24.796875 18.359375 25.109375 18.496094 25.425781 18.628906 C 25.964844 18.855469 26.503906 19.078125 27.046875 19.351562 C 28.710938 20.25 29.160156 22.320312 27.988281 23.761719 Z M 27.988281 23.761719 "/>
</g>
</svg>
