<?xml version="1.0" encoding="UTF-8"?>
<svg xmlns="http://www.w3.org/2000/svg" xmlns:xlink="http://www.w3.org/1999/xlink" width="45pt" height="45pt" viewBox="0 0 45 45" version="1.1">
<g id="surface1">
<path style=" stroke:none;fill-rule:nonzero;fill:rgb(25.098039%,29.411765%,35.686275%);fill-opacity:1;" d="M 22.589844 11.925781 C 22.546875 11.925781 22.546875 11.925781 22.5 11.925781 C 17.863281 11.925781 13.5 13.726562 10.214844 16.964844 C 6.886719 20.25 5.085938 24.613281 5.039062 29.25 C 5.039062 30.511719 5.175781 31.816406 5.398438 32.894531 L 39.554688 33.074219 C 39.78125 31.996094 39.960938 30.691406 39.960938 29.429688 C 40.003906 19.84375 32.21875 11.96875 22.589844 11.925781 Z M 21.78125 13.546875 C 21.78125 13.140625 22.09375 12.824219 22.5 12.824219 C 22.90625 12.824219 23.21875 13.140625 23.21875 13.546875 L 23.21875 16.515625 C 23.21875 16.921875 22.90625 17.234375 22.5 17.234375 C 22.09375 17.234375 21.78125 16.921875 21.78125 16.515625 Z M 10.125 29.878906 L 7.199219 29.878906 C 6.796875 29.878906 6.480469 29.566406 6.480469 29.160156 C 6.480469 28.753906 6.796875 28.441406 7.199219 28.441406 L 10.078125 28.441406 C 10.484375 28.441406 10.800781 28.753906 10.800781 29.160156 C 10.800781 29.566406 10.484375 29.878906 10.125 29.878906 Z M 12.375 23.21875 C 12.238281 23.445312 12.015625 23.578125 11.789062 23.578125 C 11.65625 23.578125 11.566406 23.535156 11.429688 23.488281 L 8.863281 22.003906 C 8.550781 21.824219 8.414062 21.375 8.59375 21.058594 C 8.773438 20.746094 9.226562 20.609375 9.539062 20.789062 L 12.105469 22.273438 C 12.464844 22.453125 12.601562 22.90625 12.375 23.21875 Z M 16.648438 18.898438 C 16.515625 18.945312 16.425781 18.988281 16.289062 18.988281 C 16.066406 18.988281 15.796875 18.855469 15.703125 18.628906 L 14.21875 16.066406 C 14.039062 15.75 14.128906 15.300781 14.488281 15.121094 C 14.804688 14.941406 15.253906 15.03125 15.433594 15.390625 L 16.921875 17.953125 C 17.101562 18.269531 16.964844 18.675781 16.648438 18.898438 Z M 28.890625 22.453125 L 24.660156 26.773438 C 25.019531 27.226562 25.199219 27.808594 25.199219 28.441406 C 25.199219 29.96875 23.984375 31.183594 22.453125 31.183594 C 20.925781 31.183594 19.710938 29.96875 19.710938 28.441406 C 19.710938 26.910156 20.925781 25.695312 22.453125 25.695312 C 22.816406 25.695312 23.175781 25.785156 23.535156 25.921875 L 27.855469 21.511719 C 28.125 21.238281 28.574219 21.238281 28.84375 21.511719 C 29.160156 21.734375 29.160156 22.183594 28.890625 22.453125 Z M 30.914062 15.886719 L 29.429688 18.449219 C 29.296875 18.675781 29.070312 18.808594 28.84375 18.808594 C 28.710938 18.808594 28.621094 18.765625 28.484375 18.71875 C 28.171875 18.539062 28.035156 18.089844 28.214844 17.773438 L 29.699219 15.210938 C 29.878906 14.894531 30.328125 14.761719 30.644531 14.941406 C 30.960938 15.121094 31.09375 15.570312 30.914062 15.886719 Z M 38.835938 28.933594 C 38.835938 29.339844 38.519531 29.65625 38.113281 29.65625 L 35.144531 29.65625 C 34.738281 29.65625 34.425781 29.339844 34.425781 28.933594 C 34.425781 28.53125 34.738281 28.214844 35.144531 28.214844 L 38.113281 28.214844 C 38.519531 28.214844 38.835938 28.53125 38.835938 28.933594 Z M 36.585938 20.789062 C 36.765625 21.105469 36.675781 21.554688 36.316406 21.734375 L 33.75 23.265625 C 33.613281 23.308594 33.523438 23.355469 33.390625 23.355469 C 33.164062 23.355469 32.894531 23.21875 32.804688 22.996094 C 32.625 22.679688 32.714844 22.230469 33.074219 22.050781 L 35.640625 20.566406 C 35.953125 20.339844 36.40625 20.476562 36.585938 20.789062 Z M 36.585938 20.789062 "/>
</g>
</svg>
