<svg id="Layer_1" data-name="Layer 1" xmlns="http://www.w3.org/2000/svg" width="45" height="45" viewBox="0 0 45 45"><defs><style>.cls-1{fill:#404b5b;}</style></defs><title>Profile_miles (1)  45</title><path class="cls-1" d="M22.6,11h-.1A19.05,19.05,0,0,0,3.44,29.87a19.9,19.9,0,0,0,.39,4l37.29.2a19.87,19.87,0,0,0,.44-4A19.07,19.07,0,0,0,22.6,11Zm-.89,1.77a.79.79,0,0,1,1.58,0V16a.79.79,0,0,1-1.58,0ZM9,30.56H5.79A.78.78,0,0,1,5,29.77.77.77,0,0,1,5.79,29H8.94A.79.79,0,0,1,9,30.56Zm2.45-7.27a.76.76,0,0,1-.63.39,1.18,1.18,0,0,1-.4-.1L7.61,22a.76.76,0,0,1,.74-1.33l2.8,1.62A.71.71,0,0,1,11.44,23.29Zm4.67-4.72a1.12,1.12,0,0,1-.39.1.71.71,0,0,1-.64-.4l-1.62-2.8a.74.74,0,0,1,.29-1,.76.76,0,0,1,1,.3l1.62,2.8A.81.81,0,0,1,16.11,18.57Zm13.37,3.88-4.62,4.72A2.9,2.9,0,0,1,25.45,29a3,3,0,1,1-3-3,3.55,3.55,0,0,1,1.18.24l4.72-4.81a.76.76,0,0,1,1.08,0A.68.68,0,0,1,29.48,22.45Zm2.21-7.17-1.62,2.8a.79.79,0,0,1-.64.39,1.18,1.18,0,0,1-.4-.1.79.79,0,0,1-.29-1l1.62-2.8a.76.76,0,0,1,1.33.74Zm8.65,14.25a.78.78,0,0,1-.79.78H36.31a.79.79,0,1,1,0-1.57h3.24A.78.78,0,0,1,40.34,29.53Zm-2.46-8.9a.73.73,0,0,1-.3,1l-2.8,1.68a1.3,1.3,0,0,1-.39.09.7.7,0,0,1-.64-.39.75.75,0,0,1,.3-1l2.8-1.62A.73.73,0,0,1,37.88,20.63Z"/></svg>