<?xml version="1.0" encoding="UTF-8"?>
<svg xmlns="http://www.w3.org/2000/svg" xmlns:xlink="http://www.w3.org/1999/xlink" width="45pt" height="45pt" viewBox="0 0 45 45" version="1.1">
<g id="surface1">
<path style=" stroke:none;fill-rule:nonzero;fill:rgb(25.098039%,29.411765%,35.686275%);fill-opacity:1;" d="M 22.5 1.730469 C 15.496094 1.742188 9.820312 7.417969 9.808594 14.421875 C 9.808594 20.789062 20.433594 35.480469 22.5 38.257812 C 24.5625 35.480469 35.191406 20.789062 35.191406 14.421875 C 35.179688 7.417969 29.503906 1.742188 22.5 1.730469 Z M 22.453125 22.066406 C 18.25 22.066406 14.84375 18.660156 14.84375 14.457031 C 14.847656 10.253906 18.257812 6.847656 22.460938 6.855469 C 26.664062 6.859375 30.066406 10.269531 30.058594 14.472656 C 30.046875 18.667969 26.644531 22.0625 22.453125 22.066406 Z M 22.453125 22.066406 "/>
<path style=" stroke:none;fill-rule:nonzero;fill:rgb(25.098039%,29.411765%,35.686275%);fill-opacity:1;" d="M 27.648438 32.425781 C 25.175781 36.160156 23.058594 38.964844 22.847656 39.246094 C 22.765625 39.355469 22.636719 39.417969 22.5 39.417969 C 22.363281 39.417969 22.234375 39.355469 22.152344 39.246094 C 21.941406 38.964844 19.832031 36.160156 17.355469 32.425781 L 13.296875 32.425781 L 9.292969 43.269531 L 35.6875 43.269531 L 31.703125 32.425781 Z M 27.648438 32.425781 "/>
</g>
</svg>
