<svg id="Layer_1" data-name="Layer 1" xmlns="http://www.w3.org/2000/svg" width="45" height="45" viewBox="0 0 45 45"><defs><style>.cls-1{fill:#404b5b;}</style></defs><title>Profile_location (1) 45</title><path class="cls-1" d="M22.51,4A11.33,11.33,0,0,0,11.19,15.29c0,5.69,9.47,18.79,11.32,21.27C24.35,34.08,33.83,21,33.83,15.29A11.34,11.34,0,0,0,22.51,4Zm0,18.14a6.79,6.79,0,1,1,6.78-6.78h0A6.78,6.78,0,0,1,22.47,22.11Z"/><path class="cls-1" d="M27.1,31.36c-2.21,3.33-4.09,5.83-4.28,6.08a.39.39,0,0,1-.54.08l-.08-.08c-.19-.25-2.07-2.75-4.28-6.08H14.3L10.73,41H34.27l-3.55-9.67Z"/></svg>