<svg width="26" height="26" id="approval" viewBox="0 0 26 26" fill="none" xmlns="http://www.w3.org/2000/svg"><path d="M16.761 3.224h-1.416a2.362 2.362 0 0 0 -4.274 0h-1.395a0.676 0.676 0 0 0 -0.674 0.676v0.899H8.124A2.925 2.925 0 0 0 5.2 7.725v12.439a2.924 2.924 0 0 0 2.924 2.924h10.168a2.925 2.925 0 0 0 2.924 -2.924V7.724a2.925 2.925 0 0 0 -2.924 -2.924h-0.855V3.899a0.675 0.675 0 0 0 -0.675 -0.674Zm-6.41 1.35h1.214a0.675 0.675 0 0 0 0.653 -0.54 1.012 1.012 0 0 1 2.002 0 0.674 0.674 0 0 0 0.653 0.54h1.214v1.687h-5.736V4.574Zm7.94 1.575a1.575 1.575 0 0 1 1.575 1.575v12.439a1.575 1.575 0 0 1 -1.575 1.575H8.124a1.575 1.575 0 0 1 -1.575 -1.575V7.724a1.575 1.575 0 0 1 1.575 -1.575h0.855v0.787a0.674 0.674 0 0 0 0.675 0.676h7.108a0.674 0.674 0 0 0 0.674 -0.676v-0.787h0.855Z" fill="#FFFFFF"/><path d="m9.533 13.857 2.854 3.435a0.043 0.043 0 0 0 0.067 0L17.333 11.267" stroke="#FFFFFF" stroke-width="1.4733333333333334" stroke-linecap="round"/></svg>
