<svg width="26" height="26" id="drivers" viewBox="0 0 26 26" fill="none" xmlns="http://www.w3.org/2000/svg"><path d="M9.707 15.08a1.733 1.733 0 1 0 -0.001 -3.468A1.733 1.733 0 0 0 9.707 15.08Zm0 0c1.531 0 2.773 1.243 2.773 2.773H6.933c0 -1.531 1.243 -2.773 2.773 -2.773Zm6.24 -2.773H19.067m-12.133 -3.467h12.133m-3.12 6.24H19.067m-3.12 2.773H19.067m3.467 -11.267a1.383 1.383 0 0 0 -0.856 -1.281A1.385 1.385 0 0 0 21.147 5.2H4.853A1.385 1.385 0 0 0 3.467 6.587v13.52a1.385 1.385 0 0 0 1.387 1.387h16.293a1.387 1.387 0 0 0 1.387 -1.387V6.587Z" stroke="#FFFFFF" stroke-width="1.4733333333333334" stroke-miterlimit="10" stroke-linecap="round" stroke-linejoin="round"/></svg>
