<svg xmlns="http://www.w3.org/2000/svg" xmlns:xlink="http://www.w3.org/1999/xlink"  id="historical" viewBox="0 0 26 25.161" style="enable-background:new 0 0 31 30" xml:space="preserve" width="26" height="25.161"><defs><path id="a" d="M0.755 0h25.161v25.161H0.755z"/></defs><clipPath id="b"><use xlink:href="#a" style="overflow:visible"/></clipPath><g style="clip-path:url(#b)"><path d="M4.445 6.039h17.697c1.342 0 2.432 1.09 2.432 2.432v7.716c0 1.342 -1.09 2.432 -2.432 2.432H4.445c-1.342 0 -2.432 -1.09 -2.432 -2.432v-7.716c0 -1.342 1.09 -2.432 2.432 -2.432z" style="fill:none;stroke:#ffffff;stroke-width:1.4448"/><path d="M9.729 6.29v12.077m7.632 -12.077v12.077" style="stroke-width:1.4448;stroke-linecap:round;fill:none;stroke:#ffffff"/><path d="M21.806 18.871h-1.258v-4.361l-1.006 1.006 -0.755 -0.755 1.929 -1.929H21.806v6.039z" style="fill:#ffffff"/><path d="M5.955 9.31c0.755 0 1.342 0.587 1.342 1.342v2.684c0 0.755 -0.587 1.342 -1.342 1.342 -0.755 0 -1.342 -0.587 -1.342 -1.342v-2.684c0 -0.671 0.671 -1.342 1.342 -1.342zm7.381 0c0.755 0 1.342 0.587 1.342 1.342v2.684c0 0.755 -0.587 1.342 -1.342 1.342 -0.755 0 -1.342 -0.587 -1.342 -1.342v-2.684c0 -0.671 0.587 -1.342 1.342 -1.342zm8.639 0V6.458m0 2.852V6.374m0 2.935c0 0.755 -0.587 1.342 -1.342 1.342 -0.755 0 -1.342 -0.587 -1.342 -1.342V6.458m2.684 0s0 -0.084 0 0c-0.168 -0.084 -0.335 -0.084 -0.503 -0.084h-1.51c-0.252 0 -0.335 0 -0.419 0.084h-0.084m2.516 0h-2.6" style="stroke-width:1.6009;fill:none;stroke:#ffffff"/></g></svg>