<svg width="26" height="25.161" id="insurance" viewBox="0 0 26 25.161" fill="none" xmlns="http://www.w3.org/2000/svg"><path d="M13.195 4.187c4.685 0 8.692 3.123 9.914 7.47 -0.679 -0.543 -1.494 -0.815 -2.445 -0.815 -1.562 0 -2.92 0.815 -3.598 2.037 -1.019 -0.951 -2.377 -1.494 -3.871 -1.494 -1.494 0 -2.92 0.543 -3.871 1.493a4.278 4.278 0 0 0 -3.667 -2.036c-0.951 0 -1.765 0.272 -2.445 0.746a10.39 10.39 0 0 1 9.982 -7.401h0Z" stroke="#FFFFFF" stroke-width="1.2580645161290323" stroke-linecap="round" stroke-linejoin="round"/><path d="M13.436 11.721v6.356c0 0.829 0.277 2.763 -1.381 2.763 -1.381 0 -1.75 -1.566 -1.657 -2.21" stroke="#FFFFFF" stroke-width="1.2580645161290323" stroke-linecap="round"/></svg>
