<svg xmlns="http://www.w3.org/2000/svg" id="location" fill="#FFFFFF" viewBox="0 0 26 26.867" width="26" height="26.867"><path class="st0" d="M20.02 10.833c-0.087 1.3 -0.347 2.427 -1.04 3.467 -1.82 3.12 -3.64 6.327 -5.46 9.533 -0.26 0.52 -0.693 0.607 -1.127 0.347 -0.087 -0.087 -0.173 -0.173 -0.26 -0.347 -1.82 -3.207 -3.64 -6.327 -5.46 -9.533 -1.473 -2.6 -1.213 -5.633 0.693 -7.887 1.733 -2.08 4.073 -2.947 6.76 -2.427 2.947 0.52 4.853 2.253 5.633 5.2 0.173 0.433 0.26 0.953 0.26 1.647zm-7.193 11.267c0.087 -0.087 0.087 -0.087 0.087 -0.173 1.647 -2.773 3.207 -5.547 4.853 -8.32 0.693 -1.213 0.953 -2.427 0.693 -3.813 -0.607 -2.947 -3.38 -4.853 -6.327 -4.42 -3.9 0.52 -6.067 4.767 -4.16 8.233 1.04 1.82 2.08 3.553 3.12 5.373 0.52 0.953 1.127 1.993 1.733 3.12z"/><path class="st0" d="M12.827 13.953c-1.82 0 -3.207 -1.473 -3.207 -3.207s1.473 -3.12 3.293 -3.12c1.733 0 3.207 1.473 3.12 3.207 0 1.733 -1.473 3.12 -3.207 3.12zm0 -4.853c-0.953 0 -1.733 0.78 -1.733 1.733s0.78 1.647 1.733 1.647 1.733 -0.78 1.733 -1.733c0 -0.867 -0.78 -1.647 -1.733 -1.647z"/></svg>