<svg width="26" height="26.867" id="report" viewBox="0 0 26 26.867" fill="none" xmlns="http://www.w3.org/2000/svg"><path d="M16.761 3.956h-1.416a2.362 2.362 0 0 0 -4.274 0h-1.395a0.676 0.676 0 0 0 -0.674 0.674v0.9H8.124A2.925 2.925 0 0 0 5.2 8.455v12.439a2.924 2.924 0 0 0 2.924 2.924h10.168a2.925 2.925 0 0 0 2.924 -2.924V8.455a2.925 2.925 0 0 0 -2.924 -2.925h-0.855V4.631a0.675 0.675 0 0 0 -0.675 -0.674Zm-6.41 1.349h1.214a0.675 0.675 0 0 0 0.653 -0.54 1.012 1.012 0 0 1 2.002 0 0.674 0.674 0 0 0 0.653 0.54h1.214v1.687h-5.736V5.306Zm7.94 1.575a1.575 1.575 0 0 1 1.575 1.575v12.439a1.575 1.575 0 0 1 -1.575 1.575H8.124a1.575 1.575 0 0 1 -1.575 -1.575V8.455a1.575 1.575 0 0 1 1.575 -1.575h0.855v0.787a0.674 0.674 0 0 0 0.675 0.675h7.108a0.674 0.674 0 0 0 0.674 -0.675V6.881h0.855Z" fill="#FFFFFF"/><path d="M9.91 12.963h6.595" stroke="#FFFFFF" stroke-width="1.4206400000000001" stroke-linecap="round"/><path d="M9.91 15.789h6.595" stroke="#FFFFFF" stroke-width="1.4206400000000001" stroke-linecap="round"/></svg>
