<svg xmlns="http://www.w3.org/2000/svg" fill="#FFFFFF" id="tax" viewBox="0 0 26 26" width="26" height="26"><path class="st0" d="M5.2 13V5.535c0 -1.09 0.671 -1.929 1.761 -2.181h8.555c0.251 0 0.504 0.084 0.671 0.251 1.426 1.51 2.935 2.935 4.361 4.445 0.251 0.251 0.335 0.504 0.335 0.839V20.549a2.077 2.077 0 0 1 -2.096 2.096H7.296C6.038 22.645 5.2 21.722 5.2 20.465V13zm9.729 -8.304h-7.549c-0.587 0 -0.839 0.251 -0.839 0.839v14.845c0 0.587 0.251 0.839 0.839 0.839h11.239c0.587 0 0.923 -0.251 0.923 -0.923V9.226h-3.942c-0.335 0 -0.587 -0.168 -0.671 -0.504V4.696zm1.426 3.271h2.265c-0.755 -0.755 -1.51 -1.51 -2.265 -2.181v2.181z"/><path class="st0" d="M9.645 18.284c-0.419 0 -0.671 -0.168 -0.839 -0.419 -0.168 -0.335 -0.084 -0.587 0.084 -0.839l0.084 -0.084 6.71 -6.71c0.251 -0.251 0.504 -0.335 0.839 -0.251 0.335 0.084 0.504 0.335 0.504 0.671 0 0.251 -0.084 0.504 -0.335 0.755l-2.935 2.935c-1.258 1.258 -2.432 2.516 -3.69 3.69 -0.084 0.084 -0.335 0.168 -0.419 0.251zm0.839 -9.058c1.174 0 2.096 0.923 2.096 2.181 0 1.174 -0.923 2.096 -2.096 2.096s-2.181 -0.922 -2.181 -2.096a2.165 2.165 0 0 1 2.181 -2.181zm0.755 2.096c0 -0.419 -0.335 -0.755 -0.755 -0.755s-0.755 0.335 -0.755 0.755 0.335 0.755 0.755 0.755 0.755 -0.335 0.755 -0.755zm6.626 5.201c0 1.174 -1.006 2.181 -2.181 2.096 -1.174 0 -2.096 -1.006 -2.096 -2.181s1.006 -2.181 2.181 -2.096c1.174 0 2.096 1.006 2.096 2.181zm-2.096 -0.839c-0.419 0 -0.755 0.335 -0.755 0.755s0.335 0.755 0.755 0.755 0.755 -0.335 0.755 -0.755 -0.335 -0.755 -0.755 -0.755z"/></svg>