<svg width="26" height="26" viewBox="0 0 26 26" id="tools" fill="none" xmlns="http://www.w3.org/2000/svg"><path d="M14.544 23.382h-2.927a1.154 1.154 0 0 1 -1.128 -0.924l-0.399 -1.997a7.555 7.555 0 0 1 -1.557 -0.895l-1.924 0.651a1.153 1.153 0 0 1 -1.364 -0.515l-1.464 -2.534a1.154 1.154 0 0 1 0.237 -1.439L5.547 14.387a6.914 6.914 0 0 1 0 -1.794l-1.528 -1.343a1.154 1.154 0 0 1 -0.237 -1.439l1.464 -2.535a1.153 1.153 0 0 1 1.365 -0.514l1.924 0.65a7.586 7.586 0 0 1 1.556 -0.894l0.4 -1.997a1.153 1.153 0 0 1 1.128 -0.924h2.927a1.153 1.153 0 0 1 1.128 0.926l0.399 1.995c0.553 0.236 1.076 0.536 1.557 0.894l1.924 -0.65a1.153 1.153 0 0 1 1.364 0.515l1.464 2.534a1.154 1.154 0 0 1 -0.237 1.439l-1.528 1.343c0.078 0.595 0.078 1.199 0 1.794l1.528 1.343a1.154 1.154 0 0 1 0.237 1.439l-1.464 2.535a1.153 1.153 0 0 1 -1.366 0.514l-1.923 -0.65a7.564 7.564 0 0 1 -1.557 0.894l-0.4 1.997a1.153 1.153 0 0 1 -1.128 0.924Zm-2.739 -1.381h2.55l0.435 -2.178a0.69 0.69 0 0 1 0.439 -0.513 6.169 6.169 0 0 0 1.823 -1.049 0.691 0.691 0 0 1 0.664 -0.123l2.099 0.711 1.274 -2.207 -1.667 -1.467a0.691 0.691 0 0 1 -0.225 -0.634 5.793 5.793 0 0 0 0 -2.103 0.69 0.69 0 0 1 0.225 -0.634l1.668 -1.467 -1.274 -2.207 -2.099 0.711a0.694 0.694 0 0 1 -0.664 -0.125 6.189 6.189 0 0 0 -1.824 -1.047 0.689 0.689 0 0 1 -0.439 -0.513l-0.435 -2.178h-2.549l-0.437 2.178a0.69 0.69 0 0 1 -0.437 0.513 6.182 6.182 0 0 0 -1.825 1.047 0.692 0.692 0 0 1 -0.662 0.124l-2.099 -0.711 -1.276 2.209 1.669 1.466a0.69 0.69 0 0 1 0.225 0.634 5.787 5.787 0 0 0 0 2.103 0.69 0.69 0 0 1 -0.225 0.634l-1.669 1.467 1.276 2.207 2.097 -0.711a0.691 0.691 0 0 1 0.665 0.124c0.543 0.451 1.161 0.806 1.824 1.049a0.69 0.69 0 0 1 0.437 0.511l0.437 2.179Z" fill="#FFFFFF"/><path d="M13.081 17.86a4.371 4.371 0 1 1 0 -8.741 4.371 4.371 0 0 1 0 8.741Zm0 -7.362a2.99 2.99 0 1 0 0 5.982 2.99 2.99 0 0 0 0 -5.982Z" fill="#FFFFFF"/></svg>
