<svg id="Layer_1" data-name="Layer 1" xmlns="http://www.w3.org/2000/svg" viewBox="0 0 191.23 191.23"><defs><style>.cls-1{fill:#939598;}</style></defs><path class="cls-1" d="M112,173.93a10,10,0,0,0,9.8-9.81V141.23h6.54a6.19,6.19,0,0,0,6.55-6.55V69.29H56.37v65.39a6.19,6.19,0,0,0,6.55,6.55h6.54v22.89a9.81,9.81,0,1,0,19.61,0V141.23h13.09v22.89A10,10,0,0,0,112,173.93Z"/><path class="cls-1" d="M151.21,134.68a10,10,0,0,0,9.8-9.8V79.09a9.8,9.8,0,1,0-19.6,0v45.79A10,10,0,0,0,151.21,134.68Z"/><path class="cls-1" d="M40,134.68a10,10,0,0,0,9.81-9.8V79.09A10.06,10.06,0,0,0,40,69.29a10.06,10.06,0,0,0-9.8,9.8v45.79A10,10,0,0,0,40,134.68Z"/><path class="cls-1" d="M127,18.29a3.15,3.15,0,0,0-4.57,0L113.66,27l-.41.41a38.67,38.67,0,0,0-17.54-3.92h-.19A38.67,38.67,0,0,0,78,27.45L77.57,27l-8.78-8.75a3.23,3.23,0,1,0-4.56,4.57l8.49,8.49A35.38,35.38,0,0,0,65.34,38,38.43,38.43,0,0,0,56.43,60.7a2.45,2.45,0,0,1,0,.27c0,.58,0,1.18,0,1.77h78.49c0-.59,0-1.19,0-1.77a2.45,2.45,0,0,0,0-.27A38.43,38.43,0,0,0,125.89,38a35.38,35.38,0,0,0-7.38-6.62l8.5-8.49A3.17,3.17,0,0,0,127,18.29Zm-47.75,33a4.91,4.91,0,1,1,4.9-4.9A4.91,4.91,0,0,1,79.26,51.31Zm32.72,0a4.91,4.91,0,1,1,4.9-4.9A4.91,4.91,0,0,1,112,51.31Z"/></svg>