<svg id="Layer_1" data-name="Layer 1" xmlns="http://www.w3.org/2000/svg" xmlns:xlink="http://www.w3.org/1999/xlink" viewBox="0 0 191.23 191.23"><defs><style>.cls-1{fill:none;}.cls-2{filter:url(#filter);}.cls-3{clip-path:url(#clip-path);}.cls-4{fill:#78bd43;}.cls-5{fill:#939598;}</style><filter id="filter"><feOffset input="SourceAlpha"/><feGaussianBlur stdDeviation="5" result="blur"/><feFlood/><feComposite operator="in" in2="blur"/><feComposite in="SourceGraphic"/></filter><clipPath id="clip-path"><rect class="cls-1" x="-485" y="-440.29" width="256.6" height="332.07"/></clipPath></defs><g class="cls-2"><g class="cls-3"><g class="cls-3"><g class="cls-3"><path class="cls-4" d="M-376.31-10.93,88.61,75.24,127.18-133l-465-86.18q-14.4,104.68-38.51,208.24"/></g></g></g></g><path class="cls-5" d="M102.57,27.57c10.82-14.27,25.87-14.34,25.87-14.34s2.24,13.42-8.52,26.34C108.44,53.36,95.39,51.11,95.39,51.11S92.94,40.26,102.57,27.57ZM96.77,60.5c5.57,0,15.9-7.65,29.35-7.65,23.16,0,32.27,16.47,32.27,16.47a35.77,35.77,0,0,0-17.82,31.21c0,24.94,22.2,33.53,22.2,33.53s-15.52,43.67-36.47,43.67c-9.63,0-17.11-6.49-27.25-6.49-10.34,0-20.59,6.73-27.27,6.73-19.14,0-43.31-41.42-43.31-74.72,0-32.76,20.46-49.94,39.65-49.94,12.48,0,22.16,7.19,28.65,7.19Z"/></svg>