<svg width="30" height="30" viewBox="0 0 30 30" fill="none" xmlns="http://www.w3.org/2000/svg">
<path d="M7.11865 1.95658C6.77089 1.99292 6.1126 2.13707 5.70566 2.26585L5.30224 2.39352L5.1925 2.42825L5.27389 2.50963L9.01594 6.25168L8.52216 8.66131L7.33194 8.89739L7.33172 8.89743L6.12758 9.14024L4.26465 7.27732C4.03782 7.05049 3.83759 6.84879 3.66074 6.67064C3.41722 6.42534 3.21804 6.22469 3.05479 6.06458C2.91373 5.92625 2.79828 5.81696 2.70319 5.73441C2.60887 5.65254 2.5312 5.59395 2.46608 5.55985C2.40239 5.52651 2.3348 5.50835 2.27179 5.53635C2.21139 5.56319 2.1788 5.62266 2.15709 5.67966C2.13448 5.73902 2.11655 5.81585 2.0976 5.90159C2.0944 5.91605 2.09116 5.93085 2.08784 5.94599C2.0711 6.02245 2.05245 6.10758 2.02827 6.20114L2.02816 6.20156C1.8429 6.93746 1.77546 7.54212 1.81679 8.22438C1.8943 9.69088 2.42688 10.9373 3.41884 11.9861L3.4189 11.9861C4.26634 12.8801 5.31048 13.4639 6.55949 13.7375L6.56011 13.7376C6.83546 13.7953 7.30092 13.8246 7.75834 13.8259C8.21525 13.8272 8.67479 13.8005 8.93817 13.7426C8.93828 13.7426 8.93839 13.7426 8.9385 13.7425L9.24291 13.6789L19.5161 23.9521V24.1376C19.5161 24.4308 19.5896 24.8098 19.705 25.181C19.8205 25.5526 19.9798 25.9226 20.1552 26.1975L20.1553 26.1976C20.7312 27.0953 21.6647 27.7852 22.6672 28.0606L22.6677 28.0607C22.9439 28.1343 23.3411 28.1728 23.7326 28.176C24.1238 28.1792 24.5176 28.1473 24.7868 28.0761C25.8433 27.8016 26.7675 27.1694 27.3193 26.3469L27.3196 26.3464C27.6395 25.8614 27.7501 25.6354 27.9003 25.1069C28.5077 23.0095 27.4383 20.7978 25.4187 19.9723L25.4185 19.9722C25.2117 19.8885 24.9203 19.8058 24.6393 19.7441C24.3592 19.6825 24.0825 19.6403 23.9062 19.6403C23.9064 19.6403 23.9065 19.6403 23.9065 19.6403C23.9065 19.6403 23.8954 19.6391 23.8641 19.6196C23.8313 19.5992 23.7838 19.5637 23.7135 19.504C23.5733 19.3849 23.3505 19.1772 22.9859 18.8232C22.2575 18.1158 20.9685 16.8294 18.655 14.5134L18.655 14.5134L13.54 9.39836L13.6131 9.07859L13.6131 9.0785C13.666 8.84573 13.6953 8.38702 13.6998 7.93642C13.7042 7.48632 13.6841 7.02972 13.6337 6.8013C13.0968 4.25192 11.1601 2.37012 8.68377 1.99785C8.21333 1.92549 7.55884 1.90998 7.11865 1.95658ZM7.11865 1.95658C7.11866 1.95658 7.11868 1.95658 7.11869 1.95658L7.12594 2.02596L7.1186 1.95659C7.11861 1.95659 7.11863 1.95659 7.11865 1.95658ZM12.4234 9.65922L12.4367 9.61845L12.5643 9.22537C12.6382 8.99629 12.6901 8.63936 12.7117 8.25733C12.7332 7.87621 12.7242 7.47648 12.6791 7.16327C12.382 5.13373 10.7643 3.40625 8.79745 3.01389C8.50601 2.95611 8.12831 2.91937 7.79141 2.90861C7.62312 2.90323 7.46614 2.90437 7.33614 2.91242C7.25419 2.91749 7.18552 2.92518 7.13236 2.93491C7.13637 2.94 7.14069 2.94542 7.14535 2.95117C7.19783 3.01596 7.2839 3.11263 7.40432 3.24166C7.64476 3.49927 8.01813 3.88157 8.52354 4.38699L8.52363 4.38707L10.0454 5.91394L10.0717 5.94034L10.0645 5.9769L9.72237 7.70262C9.72236 7.70268 9.72235 7.70273 9.72234 7.70279C9.63039 8.17788 9.54354 8.6121 9.47903 8.92826C9.44678 9.08634 9.42009 9.21498 9.40113 9.3045C9.39166 9.34922 9.38408 9.38435 9.37868 9.40856L9.3721 9.43721L9.36966 9.4467L9.3679 9.45245C9.36754 9.45351 9.36675 9.45578 9.36556 9.45849C9.3653 9.45909 9.36493 9.4599 9.36446 9.46088C9.36389 9.46206 9.36316 9.46348 9.36229 9.46503C9.36118 9.46699 9.35748 9.47345 9.35081 9.48012C9.34412 9.48681 9.33764 9.49051 9.33565 9.49164C9.33404 9.49255 9.33257 9.49329 9.33135 9.49387C9.33041 9.49432 9.32963 9.49468 9.32903 9.49493C9.32721 9.49573 9.32559 9.49634 9.3244 9.49677C9.32379 9.49699 9.32329 9.49716 9.32293 9.49728L9.31715 9.49903L9.30767 9.50142L9.2792 9.50785C9.25514 9.51311 9.22022 9.52051 9.17576 9.52977C9.08677 9.54832 8.9588 9.57452 8.80142 9.60645C8.48661 9.6703 8.05374 9.75713 7.57877 9.85162L7.57872 9.85163L5.8527 10.1938L5.81606 10.201L5.78965 10.1746L4.26278 8.64775C3.8442 8.22917 3.46149 7.85157 3.18163 7.58063C3.04164 7.4451 2.9277 7.33657 2.84798 7.26302C2.83154 7.24786 2.81667 7.23429 2.80341 7.22234C2.80001 7.24539 2.79676 7.27224 2.79374 7.30251C2.78353 7.40486 2.77641 7.54034 2.77293 7.68653C2.76593 7.97965 2.7737 8.30803 2.79842 8.49141C3.06581 10.2713 4.10845 11.6857 5.70511 12.4261L5.70516 12.4261C6.7016 12.8891 7.90552 12.9999 8.96736 12.7282L12.4234 9.65922ZM12.4234 9.65922L12.4538 9.68952L23.3921 20.6176L23.4111 20.6366L23.438 20.638L23.9487 20.6635L23.9491 20.6635C25.3402 20.7236 26.5295 21.624 26.9392 22.9229L26.9392 22.9229C27.0279 23.2038 27.0483 23.3793 27.0483 23.9232C27.0483 24.467 27.0279 24.6425 26.9392 24.9234C26.7795 25.4276 26.505 25.8724 26.0886 26.2837L26.0883 26.284C25.8027 26.5696 25.6409 26.6874 25.2656 26.8625L25.2646 26.863C24.968 27.0075 24.7448 27.0956 24.5223 27.1475C24.3 27.1994 24.075 27.2159 23.774 27.2134L23.7737 27.2134C22.5126 27.2084 21.4241 26.5385 20.8847 25.445C20.6281 24.9116 20.5237 24.5077 20.5087 23.9672L20.4985 23.5385L20.4979 23.5105L20.4781 23.4907L9.59082 12.6035L9.56261 12.5753L9.52398 12.5852L8.96742 12.7282L12.4234 9.65922ZM24.2239 22.8396L24.224 22.8397C24.8052 23.0558 25.1061 23.6809 24.9218 24.3068L24.9217 24.307C24.8858 24.4305 24.7693 24.5966 24.6209 24.745C24.4725 24.8934 24.3064 25.0098 24.1829 25.0458L24.1827 25.0458C23.3708 25.2841 22.6178 24.7457 22.6178 23.9384C22.6178 23.4981 22.8143 23.1475 23.1102 22.9448C23.4062 22.7421 23.8072 22.6837 24.2239 22.8396ZM23.4045 21.7911C22.9898 21.8602 22.5839 22.0826 22.2534 22.4131C21.0327 23.6285 21.6899 25.7169 23.3864 26.0648C24.3025 26.2554 25.335 25.7277 25.7365 24.8667C26.4904 23.2533 25.1557 21.4958 23.4045 21.7911Z" fill="#7ABB4A" stroke="#7ABB4A" stroke-width="0.139855"/>
</svg>
