<svg width="26" height="26" id="videos" viewBox="0 0 26 26" fill="none" xmlns="http://www.w3.org/2000/svg"><path d="M14.621 18.681a1.209 1.209 0 1 1 -2.419 0 1.209 1.209 0 0 1 2.419 0Z" fill="#7ABB4A"/><path d="M10.674 11.552c0 -1.528 1.273 -2.769 2.801 -2.706a2.72 2.72 0 0 1 2.641 2.642 2.733 2.733 0 0 1 -1.655 2.577c-0.637 0.287 -1.082 0.86 -1.082 1.56" stroke="#7ABB4A" stroke-width="1.6323890322580645" stroke-miterlimit="10" stroke-linecap="round" stroke-linejoin="round"/><path cx="16" cy="16" r="11.1273" stroke="#7ABB4A" stroke-width="1.463925806451613" d="M22.752 13.419A9.333 9.333 0 0 1 13.419 22.752A9.333 9.333 0 0 1 4.087 13.419A9.333 9.333 0 0 1 22.752 13.419z"/></svg>
