<svg xmlns="http://www.w3.org/2000/svg" fill="#7abb4a" stroke="#7abb4a" stroke-width=".3316" version="1.1" id="manual" x="0" y="0" viewBox="0 0 26 26" style="enable-background:new 0 0 30 30" xml:space="preserve" width="26" height="26"><path class="st0" d="M13 21.84H6.76c-1.387 0 -2.513 -1.127 -2.513 -2.513V7.54c0 -1.213 0.867 -2.34 2.167 -2.513h4.333c0.607 0 0.953 0.607 0.693 1.127 -0.173 0.26 -0.347 0.347 -0.693 0.347H6.847c-0.607 0 -1.04 0.347 -1.127 0.953v11.96c0 0.52 0.347 0.953 0.867 1.04h12.74c0.607 0 1.127 -0.433 1.127 -1.127v-3.9c0 -0.347 0.26 -0.693 0.607 -0.78 0.433 -0.087 0.867 0.26 0.867 0.693v3.987c0 1.3 -0.867 2.34 -2.167 2.513H13z"/><path class="st0" d="M22.793 6.067c0 0.607 -0.26 1.213 -0.693 1.647 -0.607 0.607 -1.213 1.213 -1.82 1.907 -1.387 1.387 -2.687 2.773 -4.073 4.073l-1.993 1.993c-0.173 0.173 -0.26 0.26 -0.433 0.26 -1.213 0.347 -2.513 0.693 -3.727 1.04 -0.26 0.087 -0.52 0 -0.693 -0.173 -0.173 -0.173 -0.26 -0.433 -0.173 -0.78 0.26 -1.04 0.607 -2.167 0.867 -3.207 0.087 -0.173 0.087 -0.347 0.173 -0.52 0 -0.173 0.087 -0.26 0.26 -0.433l1.82 -1.82L16.467 5.893c0.693 -0.693 1.3 -1.387 1.993 -1.993 0.433 -0.433 1.04 -0.693 1.733 -0.693 0.607 0 1.213 0.26 1.647 0.693l0.607 0.607c0.173 0.433 0.347 0.953 0.347 1.56zm-9.187 8.06 6.153 -6.153 -1.733 -1.733 -6.153 6.153c0.607 0.607 1.213 1.127 1.733 1.733zM19.067 5.2l1.733 1.733 0.26 -0.26c0.26 -0.347 0.347 -0.78 0 -1.127l-0.607 -0.607c-0.26 -0.26 -0.78 -0.26 -1.04 -0.087 -0.087 0.087 -0.173 0.26 -0.347 0.347zm-6.847 9.62L11.267 13.867c-0.087 0.433 -0.26 0.867 -0.347 1.387 0.347 -0.173 0.867 -0.26 1.3 -0.433z"/></svg>