<svg width="26" height="26" id="summary" viewBox="0 0 26 26" fill="none" xmlns="http://www.w3.org/2000/svg"><path d="M3.467 15.08h2.909M3.467 11.787h2.909m8.914 8.179L14.454 21.667m0 0C18.916 21.667 22.533 17.981 22.533 13.433S18.916 5.2 14.454 5.2m0 16.467c-2.782 0 -5.235 -1.433 -6.688 -3.614M14.454 5.2l-0.835 1.701M14.454 5.2c-2.782 0 -5.235 1.433 -6.688 3.614m12.657 7.149 1.028 1.587m-1.863 -8.119 1.863 -0.114m-3.765 4.117c0 1.819 -1.447 3.293 -3.232 3.293 -1.785 0 -3.232 -1.474 -3.232 -3.293 0 -1.819 1.447 -3.293 3.232 -3.293 1.785 0 3.232 1.474 3.232 3.293Z" stroke="#7ABB4A" stroke-width="1.3866666666666667" stroke-miterlimit="10" stroke-linecap="round" stroke-linejoin="round"/></svg>
