<svg fill="#7ABB4A" id="mileage" xmlns="http://www.w3.org/2000/svg" viewBox="0 0 26 26" width="26" height="26"><path class="st0" d="M19.413 19.76c1.127 -1.387 1.733 -2.947 1.82 -4.68h-1.473c-0.433 0 -0.693 -0.26 -0.693 -0.607 0 -0.347 0.26 -0.607 0.693 -0.693h1.473c-0.173 -1.82 -0.78 -3.467 -1.993 -4.853L18.2 9.967c-0.173 0.173 -0.433 0.26 -0.693 0.173s-0.433 -0.26 -0.433 -0.52 0.087 -0.433 0.173 -0.607l1.04 -1.04c-1.387 -1.213 -3.033 -1.82 -4.853 -1.993v1.473c0 0.347 -0.173 0.607 -0.52 0.693 -0.433 0.087 -0.78 -0.173 -0.78 -0.607V5.98c-1.82 0.173 -3.467 0.78 -4.853 1.993l1.04 1.04c0.173 0.173 0.26 0.433 0.173 0.693 -0.173 0.433 -0.693 0.607 -1.127 0.26l-0.867 -0.867 -0.173 -0.173c-1.213 1.387 -1.82 3.033 -1.993 4.853h1.56c0.26 0 0.52 0.173 0.607 0.433s0.087 0.52 -0.087 0.693l-0.52 0.26H4.42c0.173 1.733 0.78 3.293 1.907 4.68 0.26 -0.26 0.52 -0.607 0.78 -0.867 0.347 -0.347 0.693 -0.347 1.04 -0.087 0.26 0.26 0.26 0.693 -0.087 0.953l-1.3 1.3c-0.347 0.347 -0.693 0.347 -1.04 0 -1.473 -1.56 -2.34 -3.38 -2.513 -5.547 -0.347 -3.207 0.693 -5.893 2.947 -8.147 4.68 -4.507 12.48 -3.207 15.427 2.687 1.82 3.727 1.213 7.973 -1.56 11.007 -0.347 0.347 -0.693 0.347 -1.04 0l-1.3 -1.3c-0.347 -0.347 -0.347 -0.693 0 -0.953 0.26 -0.26 0.693 -0.26 0.953 0.087 0.26 0.173 0.52 0.433 0.78 0.78z"/><path class="st0" d="M12.827 12.74h0.347c0.26 0.173 0.433 0 0.693 -0.173l1.82 -1.82c0.347 -0.347 0.693 -0.347 0.953 -0.087 0.26 0.26 0.26 0.693 -0.087 0.953l-1.993 1.993c-0.087 0.087 -0.173 0.173 -0.087 0.347 0.26 0.953 -0.26 1.82 -1.213 2.08 -0.867 0.26 -1.82 -0.347 -2.08 -1.3 -0.173 -0.953 0.347 -1.82 1.3 -2.08 0.173 0.087 0.26 0.087 0.347 0.087zm0.087 2.08c0.26 0 0.433 -0.173 0.347 -0.433 0 -0.173 -0.173 -0.347 -0.433 -0.347s-0.347 0.173 -0.347 0.433c0 0.173 0.173 0.347 0.433 0.347z"/></svg>