<svg width="26" height="26" id="notification" viewBox="0 0 26 26" fill="none" xmlns="http://www.w3.org/2000/svg"><path d="M13.17 3.684h-0.281l-0.344 0.019a5.507 5.507 0 0 0 -3.279 1.635c-0.992 1.016 -1.619 2.368 -1.881 3.805l-0.941 5.141c-0.195 1.066 -0.594 1.285 -1.162 1.657 -0.285 0.185 -0.631 0.384 -0.934 0.738 -0.303 0.352 -0.507 0.868 -0.507 1.468 0 1.023 0.851 1.869 1.882 1.869H9.729c0.122 1.822 1.658 3.272 3.522 3.272 1.863 0 3.399 -1.451 3.521 -3.271h4.007c1.032 0 1.883 -0.847 1.883 -1.87 0 -0.599 -0.205 -1.115 -0.507 -1.468 -0.304 -0.352 -0.65 -0.552 -0.933 -0.738 -0.569 -0.372 -0.967 -0.59 -1.162 -1.657l-0.942 -5.141c-0.263 -1.437 -0.889 -2.789 -1.881 -3.804a5.507 5.507 0 0 0 -3.279 -1.635l-0.344 -0.019h-0.443Zm0.081 1.377c1.238 0 2.208 0.47 2.969 1.25 0.762 0.778 1.296 1.882 1.516 3.081l0.941 5.141c0.267 1.459 1.162 2.178 1.771 2.577 0.305 0.2 0.523 0.346 0.632 0.475 0.11 0.128 0.169 0.228 0.169 0.562a0.453 0.453 0 0 1 -0.47 0.468H5.723a0.453 0.453 0 0 1 -0.471 -0.468c0 -0.334 0.059 -0.434 0.169 -0.562 0.11 -0.128 0.327 -0.275 0.632 -0.475 0.61 -0.399 1.505 -1.118 1.772 -2.577l0.941 -5.141c0.219 -1.199 0.753 -2.303 1.514 -3.082 0.762 -0.778 1.732 -1.249 2.971 -1.249Zm2.072 14.956c-0.119 1.058 -0.971 1.87 -2.073 1.87 -1.101 0 -1.953 -0.813 -2.072 -1.87h4.147Z" fill="#7ABB4A"/></svg>
