<svg width="26" height="26" viewBox="0 0 26 26" id="users" fill="none" xmlns="http://www.w3.org/2000/svg"><path d="M17.195 11.27a3.471 3.471 0 0 0 3.467 -3.468 3.473 3.473 0 0 0 -3.467 -3.469 3.472 3.472 0 0 0 -3.468 3.468 3.472 3.472 0 0 0 3.468 3.468v0.001Zm1.981 -3.468a1.985 1.985 0 0 1 -1.982 1.982 1.985 1.985 0 0 1 -1.981 -1.982 1.985 1.985 0 0 1 1.981 -1.983 1.985 1.985 0 0 1 1.982 1.983Zm-1.979 4.582c-0.699 0 -1.368 0.113 -1.988 0.334a0.743 0.743 0 0 0 -0.451 0.948 0.736 0.736 0 0 0 0.848 0.465c0.035 -0.008 0.068 -0.003 0.102 -0.015a4.427 4.427 0 0 1 1.489 -0.247c1.263 0 2.447 0.491 3.338 1.38a4.691 4.691 0 0 1 1.38 3.337 1.03 1.03 0 0 1 -1.025 1.034h-3.999c-0.052 0 -0.098 0.019 -0.147 0.029a0.732 0.732 0 0 0 -0.378 1.239c0.14 0.139 0.329 0.217 0.525 0.217h3.997c0.668 0 1.297 -0.262 1.773 -0.737a2.502 2.502 0 0 0 0.739 -1.781 6.165 6.165 0 0 0 -1.815 -4.388 6.165 6.165 0 0 0 -4.388 -1.815Zm-8.391 -1.115a3.472 3.472 0 0 0 3.467 -3.468 3.473 3.473 0 0 0 -3.467 -3.469 3.473 3.473 0 0 0 -3.468 3.469 3.471 3.471 0 0 0 3.468 3.468Zm0 -5.45a1.985 1.985 0 0 1 1.981 1.983 1.985 1.985 0 0 1 -1.981 1.982 1.985 1.985 0 0 1 -1.982 -1.982 1.985 1.985 0 0 1 1.982 -1.983ZM5.113 21.103h7.385a2.516 2.516 0 0 0 2.513 -2.513c0 -3.422 -2.784 -6.205 -6.205 -6.205S2.6 15.168 2.6 18.59a2.516 2.516 0 0 0 2.513 2.513Zm3.692 -7.233a4.726 4.726 0 0 1 4.721 4.72c0 0.567 -0.461 1.028 -1.028 1.028H5.113a1.028 1.028 0 0 1 -1.028 -1.028 4.725 4.725 0 0 1 4.721 -4.72h-0.001Z" fill="#7ABB4A"/></svg>
