<svg width="30" height="30" id="user" viewBox="0 0 30 30" fill="none" xmlns="http://www.w3.org/2000/svg">
<path d="M14.9938 3.1438C8.45843 3.1438 3.1438 8.45843 3.1438 14.9938C3.1438 21.5292 8.45843 26.8438 14.9938 26.8438C21.5292 26.8438 26.8438 21.5292 26.8438 14.9938C26.8438 8.45843 21.5292 3.1438 14.9938 3.1438ZM14.9938 4.72389C20.6752 4.72389 25.2638 9.31257 25.2638 14.9939C25.2638 16.9169 24.7396 18.7152 23.8237 20.2521C21.6542 17.8311 18.4973 16.3104 14.994 16.3104C11.4865 16.3104 8.33217 17.8344 6.16437 20.2604C5.24633 18.722 4.72427 16.9191 4.72427 14.9937C4.72427 9.31229 9.31295 4.7237 14.9943 4.7237L14.9938 4.72389ZM14.9938 5.51394C12.24 5.51394 9.99047 7.76337 9.99047 10.5173C9.99047 13.2712 12.2399 15.5206 14.9938 15.5206C17.7477 15.5206 19.9971 13.2712 19.9971 10.5173C19.9971 7.76337 17.7477 5.51394 14.9938 5.51394ZM14.9938 7.09403C16.8938 7.09403 18.4172 8.61737 18.4172 10.5174C18.4172 12.4175 16.8938 13.9408 14.9938 13.9408C13.0938 13.9408 11.5704 12.4175 11.5704 10.5174C11.5704 8.61737 13.0938 7.09403 14.9938 7.09403ZM14.9938 17.8907C18.1648 17.8907 20.9856 19.331 22.8693 21.5856C20.9869 23.8337 18.1627 25.2641 14.9938 25.2641C11.8249 25.2641 9.00061 23.8339 7.11825 21.5856C9.00066 19.3286 11.8206 17.8907 14.9938 17.8907Z" fill="#7ABB4A"/>
</svg>
