<svg xmlns="http://www.w3.org/2000/svg" viewBox="0 0 315 315"><defs><style>.cls-1{fill:#f8f8f8;}.cls-2{fill:#006cfc;}.cls-3{fill:#1a6ef5;}.cls-4{fill:#cedae7;}.cls-5{fill:none;}.cls-6{fill:#ebbc36;}.cls-7{fill:#fcf8f7;}.cls-8{fill:#cbd8ec;}.cls-9{fill:#46d6ff;}.cls-10{fill:#78bc42;}.cls-11{isolation:isolate;}.cls-12{fill:#f1f8ec;}</style></defs><g id="Header"><circle class="cls-1" cx="155.1" cy="170.63" r="119.23"/><path class="cls-2" d="M111.64,85.5a1.66,1.66,0,0,1,1.94.69,1.11,1.11,0,0,1-.48,1.68l-14,5.71a1.65,1.65,0,0,1-1.94-.69,1.11,1.11,0,0,1,.49-1.68Z"/><path class="cls-3" d="M98.44,63.65a1.61,1.61,0,0,1,1.88.67A1.08,1.08,0,0,1,99.85,66,1.59,1.59,0,0,1,98,65.28,1.08,1.08,0,0,1,98.44,63.65Z"/><path class="cls-4" d="M103.27,93.42a1.63,1.63,0,0,1,1.94.69,1.11,1.11,0,0,1-.48,1.68l-3.41,1.39a1.66,1.66,0,0,1-1.94-.69,1.11,1.11,0,0,1,.48-1.68Z"/><path class="cls-2" d="M91.68,93.65a1.18,1.18,0,0,1,1.38.5l3.38,5.49a.8.8,0,0,1-.35,1.2l-5.6,2.29a1.18,1.18,0,0,1-1.39-.5l-3.37-5.49a.79.79,0,0,1,.34-1.2Z"/><path class="cls-5" d="M269.9,232.71a8.81,8.81,0,0,0,.68-1.65l.63-1.16.67-1.23.7-1.28c.21-.39.49-.91.71-1.3l.7-1.3.7-1.28.67-1.22.63-1.16a8.64,8.64,0,0,1-.68,1.66Z"/><path class="cls-6" d="M222,182.93c4.14-1.69,9.52.23,12,4.29s1.15,8.72-3,10.41l-52.53,21.44c-4.14,1.69-9.52-.22-12-4.28s-1.15-8.72,3-10.41Zm-5.1,13.15a1.4,1.4,0,0,0,.61-2.13,2.09,2.09,0,0,0-2.46-.87l-31.46,12.84a1.41,1.41,0,0,0-.61,2.13,2.1,2.1,0,0,0,2.46.88l31.46-12.85"/><path class="cls-7" d="M215.09,193.08a2.09,2.09,0,0,1,2.46.87,1.4,1.4,0,0,1-.61,2.13l-31.46,12.85a2.1,2.1,0,0,1-2.46-.88,1.41,1.41,0,0,1,.61-2.13Z"/><path class="cls-3" d="M216.71,225.38a10.23,10.23,0,0,1,10.5,3.74.77.77,0,0,0-.32,1.15c2.2,3.83.57,7.78-2.79,9.15a7.84,7.84,0,0,1-5.63,0c-6.63-2.37-7.65-10.39-2.09-12.88A.76.76,0,0,0,216.71,225.38Z"/><path class="cls-8" d="M147.89,26.12c6.56-2.68,15.12.37,19.06,6.8l110.19,179.5c3.95,6.44,1.83,13.85-4.74,16.53l-87.89,35.88c-6.57,2.68-15.12-.37-19.07-6.8L55.25,78.53C51.31,72.1,53.43,64.68,60,62ZM274.74,213.41,164.55,33.91c-3.15-5.14-10-7.57-15.21-5.44L61.44,64.36c-5.23,2.14-6.93,8-3.78,13.18L167.85,257c3.15,5.14,10,7.57,15.21,5.43L271,226.59c5.24-2.14,6.94-8.05,3.79-13.18"/><path class="cls-4" d="M165.24,63.62a1.66,1.66,0,0,1,1.94.69,1.11,1.11,0,0,1-.49,1.68L142.4,75.91a1.66,1.66,0,0,1-1.94-.69,1.11,1.11,0,0,1,.48-1.68Z"/><path class="cls-3" d="M126.47,52.21a1.59,1.59,0,0,1,1.88.67,1.07,1.07,0,0,1-.47,1.62l-22.44,9.16a1.58,1.58,0,0,1-1.87-.66,1.08,1.08,0,0,1,.46-1.63Z"/><path class="cls-8" d="M126.06,51.53a2.54,2.54,0,0,1,3,1.07,1.71,1.71,0,0,1-.73,2.58l-22.44,9.16a2.54,2.54,0,0,1-3-1.06,1.71,1.71,0,0,1,.74-2.58Zm1.82,3a1.07,1.07,0,0,0,.47-1.62,1.59,1.59,0,0,0-1.88-.67L104,61.37a1.08,1.08,0,0,0-.46,1.63,1.58,1.58,0,0,0,1.87.66l22.44-9.16"/><path class="cls-8" d="M98,63A2.52,2.52,0,0,1,101,64a1.7,1.7,0,0,1-.74,2.58,2.53,2.53,0,0,1-3-1.06A1.71,1.71,0,0,1,98,63Zm1.82,3a1.08,1.08,0,0,0,.47-1.63,1.61,1.61,0,0,0-1.88-.67A1.08,1.08,0,0,0,98,65.28a1.59,1.59,0,0,0,1.87.67"/><path class="cls-9" d="M149.34,28.47c5.23-2.13,12.06.3,15.21,5.44l110.19,179.5c3.15,5.13,1.45,11-3.78,13.18l-87.9,35.88c-5.24,2.14-12.06-.29-15.21-5.43L57.66,77.54c-3.15-5.13-1.45-11,3.78-13.18ZM262,201.7,168.38,49.26l-97.94,40L164,241.69l97.94-40m-36.88,39.42c4.25-1.74,6.3-6.73,3.52-11.55a1.06,1.06,0,0,0-1.33-.48l-.06,0a10.23,10.23,0,0,0-10.5-3.74,1.08,1.08,0,0,0-1.34-.57c-7,3.14-5.75,13.28,2.62,16.27a9.82,9.82,0,0,0,7.09,0M103.62,60.7a1.71,1.71,0,0,0-.74,2.58,2.54,2.54,0,0,0,3,1.06l22.44-9.16A1.71,1.71,0,0,0,129,52.6a2.54,2.54,0,0,0-3-1.07L103.62,60.7M98,63a1.71,1.71,0,0,0-.74,2.58,2.53,2.53,0,0,0,3,1.06A1.7,1.7,0,0,0,101,64,2.52,2.52,0,0,0,98,63"/><path class="cls-10" d="M138.68,133.51a1.15,1.15,0,0,1,1,.11c.81.4,10.2,6,10.78,6.59a1.56,1.56,0,0,1,.28,1.71c-.14.41-2.47,4.26-2.75,4.68s-.42.76.2,1.36a37,37,0,0,0,7.82,4.61,35,35,0,0,0,8.72,2,1.35,1.35,0,0,0,.54-.09c.34-.14.39-.43.43-.8s.64-5.07.78-5.47a1.56,1.56,0,0,1,.82-1,1.18,1.18,0,0,1,.43-.09c.8,0,11.3,2.36,12.16,2.63s.92.8,1,1.39a37.52,37.52,0,0,1-.35,6.75,3.86,3.86,0,0,1-2.29,2.29l-.28.1c-1,.32-12.31,1.38-23.52-3.13S135.27,143.89,134.72,143a4.42,4.42,0,0,1-.49-3.62,33.56,33.56,0,0,1,3.85-5.34A1.82,1.82,0,0,1,138.68,133.51Z"/><path class="cls-10" d="M150.37,125.17c.49-.2,1-.42,1.56-.58a23.91,23.91,0,0,1,15.18.54A26.76,26.76,0,0,1,178.57,133a30.78,30.78,0,0,1,2.15,3c.33.54.65,1.07.93,1.62a1.1,1.1,0,0,1-.54,1.56l-.09,0a1.64,1.64,0,0,1-1.86-.81,4.65,4.65,0,0,1-.48-1.08l-.3-.48a22.19,22.19,0,0,0-4.88-5.54,24.38,24.38,0,0,0-7.07-4,21.93,21.93,0,0,0-9.48-1.23,19.27,19.27,0,0,0-5.22,1.28c-.44.19-.94.39-1.4.64-.15.06-.27.17-.42.23l-.9.55a.88.88,0,0,1-.21.12,1.57,1.57,0,0,1-1.69-.5,1.08,1.08,0,0,1,.14-1.69,17.28,17.28,0,0,1,1.51-.86C149.28,125.62,149.82,125.39,150.37,125.17Z"/><path class="cls-10" d="M146.24,118.55a32,32,0,0,1,22.81,0,35.89,35.89,0,0,1,18.45,14.74c.41.68.81,1.42,1.21,2.17a1.1,1.1,0,0,1-.54,1.56,1.67,1.67,0,0,1-2-.79c-.21-.34-.34-.65-.51-.93l-.66-1.07a32.6,32.6,0,0,0-16.77-13.42,29.25,29.25,0,0,0-20.63.06c-.7.28-1.31.59-2,.92a6.53,6.53,0,0,0-1,.52l-.9.55-.22.13a1.58,1.58,0,0,1-1.69-.5,1.09,1.09,0,0,1,.14-1.7,16.15,16.15,0,0,1,2-1.2C144.78,119.2,145.49,118.85,146.24,118.55Z"/><path class="cls-10" d="M154.37,131.6a14.58,14.58,0,0,1,3.36-.88,16.4,16.4,0,0,1,7.47.89,17,17,0,0,1,8.81,7.08l.33.54a4,4,0,0,0,.27.55,1.09,1.09,0,0,1-.54,1.56l-.09,0a1.66,1.66,0,0,1-1.86-.81A1.57,1.57,0,0,1,172,140l-.27-.44-.06-.09a13.91,13.91,0,0,0-7.09-5.6,12.19,12.19,0,0,0-8.78,0c-.24.1-.46.25-.71.35l-.15.06a5,5,0,0,0-.78.44,1,1,0,0,1-.22.13,1.56,1.56,0,0,1-1.68-.5,1.09,1.09,0,0,1,.13-1.7l.95-.57A8.92,8.92,0,0,1,154.37,131.6Z"/><path class="cls-3" d="M277.86,224.18l-5.41,9.92a10.68,10.68,0,0,1-5.45,4.77l5.4-9.92A10.7,10.7,0,0,0,277.86,224.18Z"/><path class="cls-8" d="M215.34,224.83a1.07,1.07,0,0,1,1.37.55.76.76,0,0,1-.33,1.13c-5.56,2.49-4.54,10.51,2.09,12.88a7.84,7.84,0,0,0,5.63,0c3.36-1.37,5-5.32,2.79-9.15a.77.77,0,0,1,.32-1.15l.06,0a1.07,1.07,0,0,1,1.34.48c2.77,4.82.72,9.82-3.53,11.55a9.82,9.82,0,0,1-7.09,0C209.62,238.09,208.36,228,215.34,224.83Z"/><path class="cls-3" d="M49.13,76.69l5.41-9.92c-1.85,3.38-1.74,7.76.71,11.76l-5.4,9.92C47.39,84.45,47.28,80.08,49.13,76.69Z"/><g class="cls-11"><path class="cls-3" d="M277.86,224.18l-5.41,9.92a10.68,10.68,0,0,1-5.45,4.77l5.4-9.92a10.7,10.7,0,0,0,5.46-4.77"/></g><polygon class="cls-3" points="272.4 228.95 267 238.87 179.1 274.76 184.51 264.83 272.4 228.95"/><polygon class="cls-3" points="165.44 258.02 160.03 267.95 49.85 88.45 55.25 78.53 165.44 258.02"/><path class="cls-3" d="M184.51,264.83l-5.41,9.93c-6.56,2.68-15.11-.38-19.06-6.81l5.4-9.92C169.39,264.46,177.94,267.51,184.51,264.83Z"/><polygon class="cls-8" points="167.8 50.97 260.65 202.24 261.95 201.7 168.38 49.26 70.44 89.25 71.16 90.42 167.8 50.97"/><path class="cls-12" d="M137.54,99.71c22.41-9.15,51.51,1.24,65,23.21s6.25,47.2-16.16,56.34-51.51-1.24-65-23.21S115.13,108.86,137.54,99.71Zm43.3,51.46c-.05-.59-.11-1.11-1-1.39s-11.36-2.67-12.16-2.63a1.18,1.18,0,0,0-.43.09,1.56,1.56,0,0,0-.82,1c-.14.4-.72,5-.78,5.47s-.09.66-.43.8a1.35,1.35,0,0,1-.54.09,35,35,0,0,1-8.72-2,37,37,0,0,1-7.82-4.61c-.62-.6-.47-.93-.2-1.36s2.61-4.27,2.75-4.68a1.56,1.56,0,0,0-.28-1.71c-.58-.6-10-6.19-10.78-6.59a1.15,1.15,0,0,0-1-.11,1.82,1.82,0,0,0-.6.48,33.56,33.56,0,0,0-3.85,5.34,4.42,4.42,0,0,0,.49,3.62c.55.94,8.46,9.72,19.68,14.23s22.53,3.45,23.52,3.13l.28-.1a3.86,3.86,0,0,0,2.29-2.29,37.52,37.52,0,0,0,.35-6.75m7.87-15.75c-.4-.75-.8-1.49-1.21-2.17a35.89,35.89,0,0,0-18.45-14.74,32,32,0,0,0-22.81,0c-.75.3-1.46.65-2.17,1a16.15,16.15,0,0,0-2,1.2,1.09,1.09,0,0,0-.14,1.7,1.58,1.58,0,0,0,1.69.5l.22-.13.9-.55a6.53,6.53,0,0,1,1-.52c.66-.33,1.27-.64,2-.92a29.25,29.25,0,0,1,20.63-.06A32.6,32.6,0,0,1,185,134.19l.66,1.07c.17.28.3.59.51.93a1.64,1.64,0,0,0,1.86.82,1.11,1.11,0,0,0,.64-1.59m-7.06,2.21c-.28-.55-.6-1.08-.93-1.62a30.78,30.78,0,0,0-2.15-3,26.76,26.76,0,0,0-11.46-7.88,23.91,23.91,0,0,0-15.18-.54c-.53.16-1.07.38-1.56.58s-1.09.45-1.61.72a17.28,17.28,0,0,0-1.51.86,1.08,1.08,0,0,0-.14,1.69,1.57,1.57,0,0,0,1.69.5.88.88,0,0,0,.21-.12l.9-.55c.15-.06.27-.17.42-.23.46-.25,1-.45,1.41-.64a19.11,19.11,0,0,1,5.21-1.28,21.93,21.93,0,0,1,9.48,1.23,24.38,24.38,0,0,1,7.07,4,22.19,22.19,0,0,1,4.88,5.54l.3.48a4.65,4.65,0,0,0,.48,1.08,1.64,1.64,0,0,0,1.86.81l.09,0a1.1,1.1,0,0,0,.54-1.56m-7.31,1.6-.33-.54a17,17,0,0,0-8.81-7.08,16.4,16.4,0,0,0-7.47-.89,14.58,14.58,0,0,0-3.36.88,8.92,8.92,0,0,0-1.06.49l-.95.57a1.09,1.09,0,0,0-.13,1.7,1.56,1.56,0,0,0,1.68.5,1,1,0,0,0,.22-.13,5,5,0,0,1,.78-.44l.15-.06c.25-.1.47-.25.71-.35a12.19,12.19,0,0,1,8.78,0,13.86,13.86,0,0,1,7.09,5.6l.06.09.27.44a1.57,1.57,0,0,0,.15.55,1.66,1.66,0,0,0,1.86.81l.09,0a1.09,1.09,0,0,0,.54-1.56,4,4,0,0,1-.27-.55"/></g></svg>