<svg xmlns="http://www.w3.org/2000/svg" id="download" width="20" height="20" viewBox="0 0 20 20" fill="none"><path d="M4.847 9.505a1.032 1.032 0 0 1 0 -1.462 1.032 1.032 0 0 1 1.461 0l2.867 2.868V2.141a1.033 1.033 0 0 1 2.065 0v8.769l2.868 -2.868a1.032 1.032 0 0 1 1.461 0 1.032 1.032 0 0 1 0 1.462l-4.631 4.631a1.102 1.102 0 0 1 -0.156 0.127 0.376 0.376 0 0 1 -0.041 0.024h-0.001a0.259 0.259 0 0 0 -0.028 0.015v0.001l-0.002 0.001c-0.029 0.019 -0.066 0.041 -0.108 0.055a1.202 1.202 0 0 1 -0.062 0.021l-0.035 0.011h-0.002l-0.029 0.011a0.586 0.586 0 0 1 -0.059 0.018h-0.004a1.113 1.113 0 0 1 -0.2 0.021 1.113 1.113 0 0 1 -0.202 -0.02h-0.005v-0.001a0.641 0.641 0 0 1 -0.089 -0.028l-0.005 -0.001a0.476 0.476 0 0 1 -0.099 -0.033M4.846 9.506l4.993 4.791M4.846 9.506l4.632 4.631a0.979 0.979 0 0 0 0.158 0.128M4.847 9.505l4.826 4.702m0.136 0.149h-0.001l0.031 -0.061m-0.029 0.061h0.001l0.028 -0.061m-0.029 0.061a0.788 0.788 0 0 1 -0.098 -0.051h-0.001c-0.024 -0.012 -0.048 -0.025 -0.075 -0.042m0.204 0.032a0.774 0.774 0 0 1 -0.061 -0.031l-0.035 -0.02a0.619 0.619 0 0 1 -0.071 -0.038m-0.035 0.056 0.035 -0.056m-0.035 0.056H9.635l0.038 -0.056m9.634 3.652a1.033 1.033 0 0 0 -1.033 -1.032H2.141a1.033 1.033 0 0 0 0 2.065h16.133a1.033 1.033 0 0 0 1.033 -1.033Z" fill="#7ABB4A" stroke="#7ABB4A" stroke-width="0.13520941176470588"/></svg>