<svg width="16" height="16" viewBox="0 0 16 16" fill="none" id="editicon" xmlns="http://www.w3.org/2000/svg">
<path d="M2.23538 4.2556V4.2556C2.23538 3.14459 3.14496 2.235 4.25597 2.23499C4.25597 2.23499 4.25598 2.23499 4.25598 2.23499L6.37207 2.23518H6.37208C6.75339 2.23518 7.06467 1.92388 7.06467 1.54259C7.06467 1.1613 6.75337 0.85 6.37208 0.85H4.25579C2.38219 0.85 0.85 2.38219 0.85 4.25579V11.7442C0.85 13.6176 2.38228 15.1499 4.2556 15.15C4.25566 15.15 4.25573 15.15 4.25579 15.15H11.744C13.6176 15.15 15.1498 13.6178 15.1498 11.7442L15.15 9.62793C15.15 9.24661 14.8387 8.93533 14.4574 8.93533C14.0761 8.93533 13.7648 9.24663 13.7648 9.62792V11.7442C13.7648 12.8552 12.8552 13.7648 11.7442 13.7648L4.25579 13.7646C3.14478 13.7646 2.23519 12.855 2.23519 11.744L2.23538 4.2556ZM5.00647 10.1572L5.0062 10.1581C4.90427 10.5319 5.10826 10.914 5.48748 11.0196C5.60212 11.0565 5.7392 11.053 5.86554 11.0214L5.86555 11.0215L5.86966 11.0203L8.58286 10.2606L8.5829 10.2608L8.58975 10.2585C8.69057 10.225 8.78639 10.161 8.86204 10.1105L8.86983 10.1053L8.882 10.0971L8.89236 10.0868L14.4544 4.55191L14.4547 4.55165C15.2729 3.73337 15.2729 2.41751 14.4547 1.59923C13.6375 0.781858 12.2658 0.779022 11.4733 1.601L11.4699 1.60455L5.94024 7.13419C5.86893 7.20551 5.80029 7.30965 5.76566 7.44578L5.00647 10.1572ZM13.4216 3.55981L8.40679 8.57465L7.42507 7.59292L12.4423 2.57567C12.7363 2.33111 13.1798 2.3596 13.4199 2.64284C13.6436 2.91179 13.6442 3.29024 13.4216 3.55981ZM7.0839 9.24964L6.64461 9.36257L6.77014 8.93589L7.0839 9.24964Z" fill="#7ABB4A" stroke="#7ABB4A" stroke-width="0.3"/>
</svg>
