<svg xmlns="http://www.w3.org/2000/svg" xmlns:xlink="http://www.w3.org/1999/xlink" viewBox="0,0,256,256" width="24px" height="24px" fill-rule="nonzero"><g fill="#909090" fill-rule="nonzero" stroke="none" stroke-width="1" stroke-linecap="butt" stroke-linejoin="miter" stroke-miterlimit="10" stroke-dasharray="" stroke-dashoffset="0" font-family="none" font-weight="none" font-size="none" text-anchor="none" style="mix-blend-mode: normal"><g transform="scale(10.66667,10.66667)"><path d="M21.39453,6.47266c1.84766,-4.80469 -1.74609,-4.46875 -1.74609,-4.46875c-2.30469,0 -5.1875,2.10156 -5.1875,2.10156c0,0 -0.59766,-0.10547 -1.97266,-0.10547c-1.6875,0 -3.22656,0.24219 -4.90234,1.25781c-3.46094,2.19922 -3.58594,6.74219 -3.58594,6.74219c3.04688,-4.36328 7.25,-6.24609 7.25,-6.24609v0.28906c-6.26172,4.27734 -7.83984,10.51563 -8.11328,11.81641c-0.28516,1.35547 -0.125,4.14063 2.51172,4.14063c2.63281,0 5.3125,-2.12109 5.3125,-2.12109c0,0 0.47266,0.12109 2.03906,0.12109c6.58984,0 8,-6 8,-6h-5.84766c0,0 -0.33203,2 -2.43359,2c-2.88281,0 -2.71484,-3.00781 -2.71484,-3.00781l10.99609,0.00781c-0.125,-8.54297 -5.88281,-8.76953 -5.88281,-8.76953c0,0 2.38672,-1.6875 4.44922,-1.6875c3.26563,0 1.72266,3.82422 1.72266,3.82422zM10.63281,19.78906c0,0 -4.01953,2.44141 -5.82813,0.75c-0.96484,-1.69141 0.60547,-4.08594 0.60547,-4.08594c0,0 1.32813,2.46875 5.22266,3.33594zM15,11h-5c0,0 -0.28906,-3 2.5,-3c2.69531,0 2.5,3 2.5,3z"></path></g></g></svg>