<svg width="30" height="30" viewBox="0 0 30 30" fill="none" id="importIcon" xmlns="http://www.w3.org/2000/svg">
<circle cx="15" cy="15" r="13.9655" stroke="#7ABB4A" stroke-width="2.06897"/>
<path d="M16.7365 16.8485C16.7042 17.5744 16.1063 18.1463 15.3797 18.1463C14.6542 18.1463 14.0569 17.5762 14.0231 16.8515L13.6796 9.49148C13.6345 8.52609 14.4051 7.71875 15.3715 7.71875C16.3365 7.71875 17.1065 8.52372 17.0636 9.48773L16.7365 16.8485ZM16.702 22.8503C16.3312 23.2211 15.8909 23.4065 15.3811 23.4065C14.8713 23.4065 14.4311 23.2211 14.0603 22.8503C13.705 22.4796 13.5273 22.047 13.5273 21.5527C13.5273 21.0429 13.705 20.6026 14.0603 20.2319C14.4311 19.8611 14.8713 19.6757 15.3811 19.6757C15.8909 19.6757 16.3312 19.8611 16.702 20.2319C17.0727 20.6026 17.2581 21.0429 17.2581 21.5527C17.2581 22.047 17.0727 22.4796 16.702 22.8503Z" fill="#7ABB4A"/>
</svg>
