<svg xmlns="http://www.w3.org/2000/svg" width="20" height="20" viewBox="0 0 20 20" fill="none" id="notification"><path d="M10.131 2.834h-.216l-.265.015a4.236 4.236 0 0 0-2.522 1.258c-.764.781-1.246 1.821-1.448 2.927l-.724 3.955c-.151.82-.456.988-.894 1.275-.219.142-.485.295-.719.568-.233.271-.389.668-.389 1.129 0 .787.655 1.438 1.448 1.438h3.081a2.714 2.714 0 0 0 2.709 2.516 2.714 2.714 0 0 0 2.708-2.516h3.082c.794 0 1.448-.652 1.448-1.439 0-.461-.158-.858-.391-1.129-.234-.271-.5-.425-.718-.568-.438-.286-.744-.454-.894-1.275l-.725-3.955c-.202-1.105-.684-2.145-1.447-2.926a4.236 4.236 0 0 0-2.522-1.258l-.262-.015h-.341Zm.062 1.059a3.071 3.071 0 0 1 2.284.961c.586.599.996 1.448 1.166 2.371l.724 3.955c.205 1.122.894 1.675 1.362 1.982.235.154.402.266.486.365.085.099.129.175.129.432a.348.348 0 0 1-.361.36H4.402a.348.348 0 0 1-.362-.36c0-.256.045-.334.129-.432.085-.099.252-.212.486-.365.469-.307 1.158-.86 1.364-1.982l.724-3.955c.168-.922.579-1.772 1.165-2.371a3.076 3.076 0 0 1 2.285-.961Zm1.594 11.505a1.593 1.593 0 0 1-1.595 1.439c-.847 0-1.502-.625-1.594-1.439h3.189Z" fill="#7ABB4A"/></svg>