<svg width="17" height="16" viewBox="0 0 17 16" fill="none" xmlns="http://www.w3.org/2000/svg" id="text">
<path d="M1.35259 7.42933L1.3572 7.43092L7.02587 9.50717L9.21768 14.8811C9.31622 15.1579 9.58255 15.3105 9.87877 15.3105C10.1593 15.3105 10.4196 15.1547 10.5379 14.8858L10.5385 14.8844L16.0523 1.82204L16.0524 1.82206L16.0536 1.81895C16.1468 1.57569 16.1035 1.27959 15.8849 1.09378C15.6949 0.915359 15.3933 0.851017 15.1369 0.939298L15.1369 0.939253L15.134 0.940342L1.34946 6.16529L1.34946 6.16528L1.3481 6.16581C1.06927 6.27618 0.9 6.52279 0.9 6.79693C0.9 7.09111 1.09107 7.33914 1.35259 7.42933ZM7.56503 8.23786L3.55769 6.77589L14.1156 2.78509L9.90077 12.7977L8.47702 9.30042L10.6573 7.23432C10.9398 6.9667 10.9451 6.53393 10.6558 6.28088C10.3763 6.01763 9.93091 6.01318 9.66722 6.28342L7.56503 8.23786Z" fill="#7ABB4A" stroke="#7ABB4A" stroke-width="0.2"/>
</svg>
