<svg width="50" height="50" id="add" viewBox="0 0 50 50" fill="none" xmlns="http://www.w3.org/2000/svg"><path d="M47.197 32.393a13.792 13.792 0 1 1 -27.583 0 13.792 13.792 0 0 1 27.583 0Z" stroke="#7ABB4A" stroke-width="1.6666666666666667"/><path d="M26.667 32.5h13.333" stroke="#7ABB4A" stroke-linecap="round" stroke-linejoin="round" stroke-width="1.6666666666666667"/><path d="M33.333 39.167v-13.333" stroke="#7ABB4A" stroke-linecap="round" stroke-linejoin="round" stroke-width="1.6666666666666667"/><path cx="9" cy="5.5" r="3.5" stroke="#7ABB4A" d="M20.833 9.167A5.833 5.833 0 0 1 15 15A5.833 5.833 0 0 1 9.167 9.167A5.833 5.833 0 0 1 20.833 9.167z" stroke-width="1.6666666666666667"/><path d="M19.583 30H3.333c0 -6.443 5.745 -11.667 12.833 -11.667 1.86 0 3.627 0.36 5.222 1.007 0.602 0.22 2.708 1.493 3.612 2.327" stroke="#7ABB4A" stroke-linejoin="round" stroke-width="1.6666666666666667"/></svg>
