 <svg xmlns="http://www.w3.org/2000/svg" id="insurance" width="50" height="50" viewBox="0 0 50 50" fill="none"><path d="M9.247 5.817h31.507c0.973 0 1.763 0.79 1.763 1.763v34.84c0 0.973 -0.79 1.763 -1.763 1.763H9.247a1.763 1.763 0 0 1 -1.763 -1.763V7.58c0 -0.973 0.79 -1.763 1.763 -1.763Z" stroke="#7ABB4A" stroke-width="1.6344616666666667"/><path d="M15.925 13.06H33.667" stroke="#7ABB4A" stroke-width="1.7204833333333334" stroke-linecap="round"/><path d="M15.925 17.903H33.667" stroke="#7ABB4A" stroke-width="1.7204833333333334" stroke-linecap="round"/><path d="m22.677 26.802 -5.15 3.563H14.617c-1.042 0 -1.878 0.913 -1.878 2.022v1.8c0 1.11 0.837 2.025 1.878 2.025h1.555c0.295 1.112 1.248 1.937 2.383 1.937 1.133 0 2.087 -0.825 2.383 -1.937h7.558c0.297 1.112 1.25 1.937 2.383 1.937 1.135 0 2.088 -0.825 2.383 -1.937h1.682c1.042 0 1.878 -0.915 1.878 -2.023v-1.8c0 -1.11 -0.837 -2.023 -1.878 -2.023h-1.675l-2.972 -3.445a0.665 0.665 0 0 0 -0.503 -0.235H23.05a0.653 0.653 0 0 0 -0.372 0.117Zm9.793 4.792c0.128 0.148 0.312 0.233 0.503 0.233h1.972c0.277 0 0.513 0.245 0.513 0.56v1.8c0 0.317 -0.237 0.562 -0.513 0.562h-2.27c-0.383 0 -0.683 0.333 -0.683 0.732 0 0.67 -0.503 1.205 -1.11 1.205 -0.605 0 -1.11 -0.535 -1.11 -1.205 0 -0.4 -0.3 -0.733 -0.683 -0.733H20.35c-0.383 0 -0.683 0.335 -0.683 0.733 0 0.67 -0.505 1.205 -1.112 1.205 -0.605 0 -1.108 -0.533 -1.108 -1.205 0 -0.398 -0.3 -0.733 -0.683 -0.733H14.617c-0.275 0 -0.512 -0.243 -0.512 -0.558v-1.8c0 -0.317 0.237 -0.56 0.512 -0.56h3.11c0.132 0 0.26 -0.042 0.37 -0.117l5.152 -3.563h6.247l2.973 3.445Z" fill="#7ABB4A" stroke="#7ABB4A" stroke-width="0.17204833333333333"/></svg>