 <svg xmlns="http://www.w3.org/2000/svg" id="compliance"  version="1.1" x="0px" y="0px" viewBox="0 0 50 50" fill="#7ABB4A" style="enable-background:new 0 0 30 30;" xml:space="preserve" width="50" height="50"><g><path class="st0" d="M47 25c0.167 12 -10.167 22.333 -22.5 22.333 -12 0 -22.333 -10.167 -22.167 -22.5 0.167 -12 10 -22 22 -22.167C37.333 2.5 47.333 13.333 47 25zM24.667 45.333c11.333 0 20.333 -9.333 20.5 -20.167 0.167 -11.167 -9 -20.667 -20.5 -20.667C13.5 4.667 4.333 13.667 4.333 25c0 11.333 9 20.333 20.333 20.333z"/><path class="st0" d="m22.5 30.833 1.5 -1.5c3.833 -3.833 7.667 -7.833 11.667 -11.667 0.167 -0.167 0.333 -0.333 0.5 -0.333 0.5 -0.167 0.833 0 1.167 0.333 0.167 0.333 0.167 0.833 -0.167 1.167L35 21 24.333 31.667l-1 1c-0.5 0.5 -1.167 0.5 -1.667 0 -2.667 -2.667 -5.333 -5.167 -8 -7.833 -0.5 -0.5 -0.5 -1 -0.167 -1.5 0.5 -0.5 1 -0.333 1.5 0 2.333 2.333 4.667 4.5 6.833 6.833 0.167 0.333 0.333 0.5 0.667 0.667z"/></g></svg>