  <svg xmlns="http://www.w3.org/2000/svg" id="Instruction" width="50" height="50" viewBox="0 0 50 50" fill="none"><path d="m5.813 5.5 -0.227 0.22v4.193h-1.642c-1.74 0 -2.005 0.055 -2.178 0.428C1.693 10.497 1.667 15.137 1.667 28.652c0 17.525 -0.017 16.833 0.41 16.997 0.2 0.073 45.647 0.073 45.847 0 0.428 -0.163 0.41 0.528 0.41 -16.997 0 -13.515 -0.028 -18.155 -0.1 -18.31 -0.173 -0.373 -0.438 -0.428 -2.178 -0.428h-1.642V5.72l-0.227 -0.218c-0.273 -0.283 -0.512 -0.292 -2.972 -0.047 -3.163 0.318 -5.587 0.755 -8.24 1.493 -2.315 0.645 -3.947 1.218 -6.763 2.393l-1.203 0.49 -1.713 -0.7c-5.258 -2.157 -9.497 -3.212 -14.967 -3.722 -2.077 -0.192 -2.25 -0.183 -2.515 0.092Zm4.512 1.683c3.975 0.51 8.022 1.602 12.077 3.258l1.733 0.71 0.027 17.145 0.017 15.477 -1.43 -0.59a47.862 47.862 0 0 0 -13.48 -3.395c-0.967 -0.1 -1.85 -0.182 -1.95 -0.182 -0.183 0 -0.183 0 -0.183 -15.523V6.883l0.893 0.065c0.483 0.035 1.523 0.145 2.297 0.237ZM42.867 24.077v15.505l-1.203 0.108c-5.077 0.455 -9.833 1.61 -14.41 3.495l-1.432 0.59 0.018 -15.477 0.028 -17.145 1.732 -0.71c4.083 -1.665 8.13 -2.757 12.077 -3.248 1.95 -0.237 2.05 -0.255 2.67 -0.263l0.52 -0.018v17.162ZM5.587 26.832c0 9.162 0.027 13.758 0.09 13.867 0.165 0.3 0.383 0.355 2.015 0.5 3.263 0.292 5.733 0.692 8.285 1.357 1.24 0.317 3.663 1.083 4.512 1.41l0.455 0.183 -8.858 0.008H3.217V11.462h2.37v15.37Zm41.197 1.81v15.515h-8.858c-4.867 0 -8.833 -0.018 -8.815 -0.037 0.092 -0.092 2.817 -0.983 4.002 -1.31 3.063 -0.857 5.57 -1.302 9.15 -1.612 1.697 -0.153 1.907 -0.2 2.062 -0.5 0.063 -0.108 0.09 -4.705 0.09 -13.867V11.462h2.37v17.18Z" fill="#7ABB4A"/></svg>