 <svg xmlns="http://www.w3.org/2000/svg" id="liability" viewBox="0 0 50 50" fill="#7ABB4A" style="enable-background:new 0 0 30 30" xml:space="preserve" width="50" height="50"><path class="st0" d="M8.333 34.5v-.667c0-7.667 0-15.333.167-23 0-1 0-1.833.333-2.833.5-1.833 2.333-3.167 4.333-3.167h30.5c1.833 0 3 .833 4 2 .667.833 1 1.833 1 2.833v6.833c0 .5-.333.833-.833.833h-7.666v21.833c0 1.5-.667 2.833-1.667 3.833-.667.833-1.667 1.5-2.667 1.833-.833.333-1.833.333-2.833.333H8.833c-1.667 0-3.167-.167-4.5-1.167-1.667-.833-2.667-2.5-2.667-4.833v-3.667c0-.667.333-1 1-1h5.667zm1.667 0h17.667c.833 0 1 .167 1.167 1 0 1.167 0 2.333.167 3.5 0 2.167 1.5 4 3.5 4.5s4.167-.333 5.333-2.167c.667-1 .667-2.167.667-3.167V9.5c0-1 .333-2 1-2.833 0-.167.167-.167.333-.5H13.167c-1.667 0-3 1.333-3 3v5C10 19.833 10 25.333 10 30.667V34.5zm17.333 1.667h-24V39.5c0 .5.167.833.333 1.333.833 1.833 2.333 3 4.5 3h21.333c-.167-.167-.167-.333-.333-.333-1-1.167-1.667-2.333-1.833-3.833v-3.5zm19.5-20.5V8.833c-.667-1.667-2-2.667-3.833-2.333-1.333.167-2.667 1.5-2.667 2.667v6.5h6.5z"/><path class="st0" d="M32.167 15.667c-.167.333-.333.667-.667.833-2.833 3-5.833 5.833-8.833 8.833l-4.5 4.5c-.5.5-1 .5-1.333.167-.333-.333-.333-1 .167-1.5 2.833-2.833 5.667-5.667 8.5-8.667 1.5-1.667 3.167-3.167 4.667-4.833.333-.333.667-.5 1-.333.5.333.667.667 1 1zM19.5 13.833c2.167 0 3.833 1.667 3.833 3.833 0 2.167-1.667 3.833-3.833 3.833-2.167 0-3.833-1.667-3.833-3.833 0-2.167 1.667-3.833 3.833-3.833zm2 3.833c0-1.167-.833-2-2-2-1 0-2 .833-2 2 0 1 .833 2 2 2 1 0 2-.833 2-2zm11.333 9.667c0 2.167-1.667 3.833-3.833 3.833-2.167 0-3.833-1.667-3.833-3.833 0-2.167 1.667-3.833 3.833-3.833 2.167 0 3.833 1.833 3.833 3.833zm-3.667-2c-1.167 0-2 .833-2 2s.833 2 2 2 2-.833 2-2c-.167-1-1-1.833-2-2z"/></svg>