 <svg xmlns="http://www.w3.org/2000/svg" id="methodology" width="50" height="50" viewBox="0 0 50 50" fill="none"><path d="M33.65 41.513a17.287 17.287 0 0 1 -8.557 2.297c-2.85 0 -5.658 -0.688 -8.142 -2.067 -0.368 -0.23 -0.875 -0.047 -1.058 0.322 -0.183 0.367 -0.047 0.873 0.322 1.057a18.733 18.733 0 0 0 8.88 2.25c3.267 0 6.487 -0.872 9.338 -2.48 0.367 -0.23 0.507 -0.688 0.277 -1.057a0.733 0.733 0 0 0 -1.058 -0.322Zm0.138 -29.497c4.647 2.757 7.777 7.58 8.328 12.957 0.045 0.413 0.367 0.688 0.782 0.688h0.092a0.783 0.783 0 0 0 0.69 -0.873c-0.597 -5.833 -4.002 -11.117 -9.108 -14.103 -0.368 -0.23 -0.875 -0.093 -1.058 0.275 -0.23 0.367 -0.092 0.827 0.275 1.057ZM7.243 25.662h0.093a0.795 0.795 0 0 0 0.782 -0.688 17.192 17.192 0 0 1 8.373 -13.002c0.367 -0.23 0.505 -0.69 0.275 -1.057 -0.23 -0.367 -0.69 -0.507 -1.058 -0.277a18.56 18.56 0 0 0 -9.155 14.15 0.783 0.783 0 0 0 0.69 0.873ZM25.14 13.533a5.122 5.122 0 0 0 5.107 -5.1c0 -2.803 -2.3 -5.1 -5.107 -5.1a5.122 5.122 0 0 0 -5.107 5.1c0 2.802 2.3 5.1 5.107 5.1Zm0 -8.638c1.978 0 3.543 1.608 3.543 3.538a3.542 3.542 0 0 1 -7.087 0c0 -1.977 1.612 -3.538 3.543 -3.538Zm-12.283 24.35H4.115c-0.413 0 -0.782 0.368 -0.782 0.783v8.728c0 0.413 0.367 0.78 0.783 0.78h8.74c0.413 0 0.783 -0.367 0.783 -0.78v-8.73a0.748 0.748 0 0 0 -0.783 -0.78Zm-0.783 8.73H4.9v-7.167h7.177v7.167Zm36.117 0.138 -5.108 -8.178a0.812 0.812 0 0 0 -0.688 -0.367c-0.277 0 -0.507 0.137 -0.692 0.367l-5.06 8.178a0.788 0.788 0 0 0 0 0.782 0.855 0.855 0 0 0 0.69 0.413h10.213a0.76 0.76 0 0 0 0.69 -0.413 0.695 0.695 0 0 0 -0.045 -0.782Zm-9.433 -0.367 3.683 -5.883 3.678 5.883h-7.36ZM18.103 24.1a0.87 0.87 0 0 0 0.367 0.092 0.758 0.758 0 0 0 0.692 -0.413 6.85 6.85 0 0 1 6.163 -3.813c2.255 0 4.325 1.057 5.613 2.895h-2.3c-0.413 0 -0.783 0.367 -0.783 0.782 0 0.413 0.368 0.78 0.783 0.78h4.923v-5.008a0.805 0.805 0 0 0 -0.783 -0.78c-0.413 0 -0.783 0.367 -0.783 0.78v2.205a8.35 8.35 0 0 0 -6.67 -3.262 8.36 8.36 0 0 0 -7.545 4.687c-0.23 0.367 -0.045 0.827 0.323 1.057Zm0.367 10.888c0.415 0 0.783 -0.367 0.783 -0.78v-2.205a8.35 8.35 0 0 0 6.67 3.262 8.36 8.36 0 0 0 7.545 -4.687 0.783 0.783 0 0 0 -0.367 -1.057 0.787 0.787 0 0 0 -1.06 0.367c-1.195 2.345 -3.542 3.815 -6.163 3.815a6.792 6.792 0 0 1 -5.613 -2.895h2.3c0.413 0 0.783 -0.367 0.783 -0.782 0 -0.413 -0.277 -0.78 -0.737 -0.78h-4.923v4.962c0 0.413 0.368 0.78 0.783 0.78Z" fill="#7ABB4A"/></svg>