 <svg xmlns="http://www.w3.org/2000/svg" id="mLogFAQ" width="50" height="50" viewBox="0 0 50 50" fill="none"><path d="M22.907 1.727c-4.513.438-8.678 2.1-12.333 4.913-1.78 1.372-4.09 3.947-5.425 6.048-.575.903-1.698 3.205-2.1 4.302a28.392 28.392 0 0 0-1.17 4.558c-.283 1.782-.283 5.16 0 6.942.412 2.522 1.06 4.55 2.167 6.805 1.205 2.457 2.457 4.202 4.467 6.22 2.017 2.01 3.762 3.262 6.22 4.467a23.05 23.05 0 0 0 6.805 2.167c1.78.283 5.16.283 6.942 0a23.05 23.05 0 0 0 6.805-2.167c2.457-1.205 4.202-2.457 6.22-4.467 2.01-2.017 3.262-3.763 4.467-6.22.803-1.635 1.207-2.703 1.645-4.348.575-2.192.712-3.388.712-5.928 0-2.538-.137-3.735-.712-5.927-.438-1.645-.842-2.713-1.645-4.35-1.205-2.457-2.457-4.2-4.467-6.22-2.018-2.008-3.763-3.26-6.22-4.467a22.702 22.702 0 0 0-6.76-2.145c-1.342-.212-4.338-.312-5.617-.183Zm4.475 1.927c3.947.412 8.012 2.11 11.19 4.695 1.087.887 2.758 2.613 3.58 3.708a21.803 21.803 0 0 1 4.193 10.267c.173 1.307.173 4.083 0 5.39a21.825 21.825 0 0 1-4.667 10.87c-.887 1.087-2.613 2.758-3.71 3.58a21.802 21.802 0 0 1-10.267 4.193c-1.307.173-4.083.173-5.388 0a21.8 21.8 0 0 1-10.267-4.193c-1.097-.822-2.823-2.493-3.71-3.58a21.823 21.823 0 0 1-4.667-10.87c-.175-1.307-.175-4.083 0-5.388a21.36 21.36 0 0 1 1.964-6.588c1.115-2.293 2.22-3.873 3.937-5.635 1.847-1.91 3.572-3.17 5.947-4.358 3.7-1.835 7.645-2.53 11.867-2.092Z" fill="#7ABB4A"/><path d="M24.867 34.172c-.527.198-.803.592-.803 1.137 0 1.228 1.645 1.617 2.207.517a1.295 1.295 0 0 0-.023-1.097c-.25-.47-.903-.73-1.378-.557ZM23.858 13.78c-2.777.622-4.805 2.833-5.15 5.617-.13.97-.01 1.353.465 1.582.292.147.392.155.667.063.447-.145.593-.42.693-1.242.165-1.325.622-2.228 1.525-3.07a4.713 4.713 0 0 1 4.567-.995c.603.183 1.472.75 1.967 1.278 1.342 1.453 1.617 3.38.767 5.253-.33.703-1.042 1.433-2.093 2.118-1.552 1.033-2.502 2.283-2.85 3.783-.1.4-.145 1.067-.145 2.072v1.49l.255.283c.22.237.328.292.658.292.328 0 .438-.055.657-.293.257-.283.257-.292.257-1.562 0-1.47.1-2.037.467-2.74.365-.693.875-1.197 1.953-1.917 2.138-1.435 3.16-3.262 3.17-5.665 0-1.662-.557-3.087-1.708-4.367-1.488-1.653-3.973-2.457-6.12-1.982Z" fill="#7ABB4A"/></svg>