 <svg xmlns="http://www.w3.org/2000/svg" id="optimize" viewBox="0 0 50 50" fill="#7ABB4A" style="enable-background:new 0 0 30 30" xml:space="preserve" width="50" height="50"><path class="st0" d="M7 24.833V23c0-.5-.167-1-.667-1.167-.667-.333-1.333-.833-2-1.167-1.667-1-2.167-3-1.167-4.833 1-1.833 2-3.667 3.167-5.5C7.333 8.5 9.333 8 11.166 9l2 1c.5.333.833.167 1.333 0 1-.667 2-1.167 3-1.667.5-.333.833-.833.833-1.333V4.5c.167-1.833 1.667-3.167 3.333-3.167h6.333c2.167 0 3.5 1.333 3.667 3.5V7c0 .5.333 1 .833 1.167 1 .5 2 1.167 3 1.833.5.333 1 .333 1.5 0l2-1c1.667-.833 3.667-.5 4.667 1.167 1.167 2 2.333 3.833 3.333 5.833.833 1.5.333 3.5-1.167 4.5-.667.5-1.333.833-2.167 1.333-.5.333-.667.667-.667 1.167v3.667c0 .5.167 1 .667 1.167.667.333 1.333.833 2 1.167 1.667 1 2.167 3 1.333 4.667-1 1.833-2.167 3.833-3.333 5.667-1 1.667-3 2.167-4.833 1.333l-2-1c-.5-.333-1-.333-1.333 0-1 .667-2 1.167-3.167 1.833-.5.333-.667.667-.833 1.333v2.5c-.167 1.833-1.667 3.167-3.5 3.167h-6.5a3.343 3.343 0 0 1-3.333-3.333v-2.5c0-.5-.167-1-.667-1.167-1-.5-2-1.167-3.167-1.833-.5-.333-1-.333-1.5 0s-1.167.667-1.667 1c-1.833 1-3.833.333-4.833-1.333-1-1.833-2.167-3.667-3.167-5.5-1-1.667-.5-3.667 1.167-4.667.667-.5 1.333-.833 2-1.167.5-.333.667-.667.667-1.167v-2zm2.5-14.5c-.833 0-1.333.333-1.667.833-1 1.833-2 3.667-3.167 5.5-.5.833-.333 1.833.667 2.333.667.5 1.333.833 2 1.167 1 .667 1.5 1.5 1.5 2.667V26.5c0 1.167-.5 2-1.5 2.667-.667.333-1.333.833-2 1.167-.833.5-1.167 1.5-.667 2.333 1 1.833 2.167 3.667 3.167 5.5.5.833 1.333 1.167 2.333.667.667-.333 1.333-.667 2-1.167 1-.5 2.167-.5 3.167 0 1 .667 2.167 1.167 3.167 1.833 1 .667 1.5 1.5 1.667 2.667V44.5c0 1 .667 1.667 1.667 1.667h6.333c1 0 1.667-.667 1.667-1.667V42c0-1 .5-1.833 1.333-2.5l3.5-2c1-.5 1.833-.5 2.833 0 .667.333 1.5.833 2.167 1.167 1 .5 1.833.167 2.333-.667 1-1.833 2.167-3.667 3.167-5.333.5-.833.333-1.833-.667-2.333-.667-.5-1.333-.833-2-1.333-.833-.5-1.333-1.333-1.5-2.5v-4c0-1 .5-1.833 1.5-2.5.667-.5 1.333-.833 2-1.167 1-.667 1.167-1.5.667-2.5-1-1.833-2-3.667-3.167-5.333-.5-1-1.333-1.167-2.333-.667-.667.333-1.333.667-2 1.167-1 .5-2 .5-3 0l-3.5-2C30.5 9.168 30 8.334 30 7.168V4.833c0-1.167-.667-1.667-1.833-1.833H22c-1.167 0-1.833.667-1.833 1.833v2.5c0 1-.5 1.833-1.5 2.333-1.167.667-2.333 1.333-3.333 2-1 .5-2.167.5-3.167 0-.667-.333-1.333-.667-2-1.167-.167 0-.5-.167-.667-.167z"/><path class="st0" d="M15.5 24.833c0-5.167 4.167-9.5 9.5-9.5s9.5 4.167 9.5 9.5c0 5.167-4.333 9.5-9.5 9.5s-9.333-4.333-9.5-9.5zM25 32.5c4.167 0 7.667-3.333 7.667-7.667 0-4.167-3.333-7.667-7.667-7.667-4.167 0-7.667 3.333-7.667 7.667 0 4.167 3.5 7.667 7.667 7.667z"/></svg>