   <svg xmlns="http://www.w3.org/2000/svg" id="parameter" width="50" height="50" viewBox="0 0 50 50" fill="none"><path d="M24.137 28.638a2.9 2.9 0 0 1 -2.88 -2.882v-0.002a2.9 2.9 0 0 1 2.91 -2.88 2.9 2.9 0 0 1 2.912 2.882 2.9 2.9 0 0 1 -2.912 2.882h-0.03Zm16.083 4.567h-0.04a4.855 4.855 0 0 0 -4.76 3.847H4.27a0.97 0.97 0 0 0 -0.975 0.965c0 0.533 0.435 0.965 0.973 0.965h31.15a4.855 4.855 0 0 0 4.762 3.847c2.68 0 4.86 -2.158 4.86 -4.813 0 -2.64 -2.16 -4.788 -4.82 -4.81Zm3.845 -8.415h-15.138a4.855 4.855 0 0 0 -4.762 -3.847 4.855 4.855 0 0 0 -4.76 3.847H4.268a0.97 0.97 0 0 0 -0.975 0.967c0 0.533 0.437 0.963 0.975 0.963h15.137a4.855 4.855 0 0 0 4.76 3.848 4.857 4.857 0 0 0 4.762 -3.848h15.138a0.97 0.97 0 0 0 0.975 -0.965c0 -0.533 -0.437 -0.965 -0.975 -0.965ZM8.153 17.918c2.335 0 4.29 -1.638 4.757 -3.815h31.155a0.97 0.97 0 0 0 0.975 -0.965 0.97 0.97 0 0 0 -0.975 -0.965H12.92a4.855 4.855 0 0 0 -4.767 -3.88c-2.678 0 -4.86 2.158 -4.86 4.812 0 2.655 2.182 4.813 4.86 4.813Zm0 -7.693A2.9 2.9 0 0 1 11.067 13.107a2.9 2.9 0 0 1 -2.912 2.882 2.9 2.9 0 0 1 -2.91 -2.883 2.9 2.9 0 0 1 2.91 -2.88Zm32.027 30.673a2.9 2.9 0 0 1 -2.912 -2.883 2.9 2.9 0 0 1 2.912 -2.88 2.9 2.9 0 0 1 2.91 2.882 2.9 2.9 0 0 1 -2.91 2.883Z" fill="#7ABB4A" stroke="#7ABB4A" stroke-width="0.08012816666666667"/></svg>