 <svg xmlns="http://www.w3.org/2000/svg" id="policy" width="50" height="50" viewBox="0 0 50 50" fill="none"><path d="M5.275 7.973c11.422 -0.017 17.862 -4.118 19.457 -6.238a0.077 0.077 0 0 1 0.115 -0.007c6.503 6.1 16.133 6.717 19.825 6.253 0.043 -0.005 0.08 0.028 0.083 0.073 2.33 26.08 -12.592 36.81 -19.953 38.923a0.07 0.07 0 0 1 -0.04 0C17.347 44.907 3.167 34.208 5.195 8.045a0.08 0.08 0 0 1 0.08 -0.072Z" stroke="#7ABB4A" stroke-width="1.8979166666666667" stroke-linecap="round"/><path cx="14.8681" cy="11.8759" r="1.97748" stroke="#7ABB4A" stroke-width="1.8979166666666667" stroke-linecap="round" d="M28.076 19.793A3.296 3.296 0 0 1 24.78 23.089A3.296 3.296 0 0 1 21.484 19.793A3.296 3.296 0 0 1 28.076 19.793z"/><path d="M24.778 23.1v8.238" stroke="#7ABB4A" stroke-width="1.8979166666666667" stroke-linecap="round"/></svg>