 <svg xmlns="http://www.w3.org/2000/svg" id="privacy" viewBox="0 0 50 50" fill="#7ABB4A" style="enable-background:new 0 0 30 30" xml:space="preserve" width="50" height="50"><path class="st0" d="M45.833 13.333c0 4.167-.5 8.333-1.667 12.5-1 3.833-2.5 7.333-4.833 10.5-2.667 4-6 7.167-10.167 9.5-1.333.667-2.667 1.333-4 1.667h-.667a17.258 17.258 0 0 1-5.333-2.5C15 42.5 11.667 38.833 9.333 34.5 7.333 30.833 6 27 5.166 23c-.833-4-1-8-.833-12.167C4.333 9.833 4.5 9 4.5 8c0-.5.5-.833 1-1 1 0 2.167 0 3.167-.167C12.334 6.666 16 6 19.5 4.5c1.5-.667 2.833-1.333 3.833-2.5.167-.167.333-.333.5-.667.5-.5 1-.667 1.5-.167 1 1 2.167 1.833 3.5 2.5 2.333 1.333 5 2.333 7.667 2.833 2.167.5 4.167.667 6.333.667.5 0 1 0 1.5-.167.667 0 1 .333 1.167 1 0 1.833.167 3.667.333 5.333zM6.167 9v1.833c-.167 3.667 0 7.5.667 11.167.667 4 2 7.833 3.833 11.333 2 3.5 4.5 6.667 7.667 9 1.833 1.5 4 2.667 6.167 3.333h.5c1-.333 2.167-.833 3-1.333 3.167-1.667 5.833-4 8.167-6.833 2.833-3.5 4.833-7.5 6-11.833.833-3 1.333-6 1.5-9 .167-2.167.167-4.5 0-6.667v-.667c-7 .167-13.333-1.5-18.833-6-1.333 1.167-2.833 2.167-4.5 2.833-3.667 1.667-7.667 2.5-11.667 2.833H6.167z"/><path class="st0" d="M24.667 31.333H17.5c-.667 0-1-.333-1-1 0-3.667 2.5-7.167 6-8.167 3-.833 5.667-.167 7.833 2C32.166 25.833 33 27.999 33 30.499c0 .667-.333 1-1 1-2.333-.167-4.833-.167-7.333-.167zm6.5-1.833c-.333-2.333-1.5-4.333-3.667-5.333-2.167-1.167-4.5-.833-6.5.5-1.667 1.167-2.5 2.833-2.833 4.833h13zm-2.334-12.167c0 2.333-1.833 4.167-4.167 4.167s-4.167-1.833-4.167-4.167 1.833-4.167 4.167-4.167 4.167 1.833 4.167 4.167zm-4 2.5c1.333 0 2.5-1.167 2.5-2.5s-1.167-2.5-2.5-2.5-2.5 1.167-2.5 2.5 1 2.5 2.5 2.5z"/></svg>