<svg xmlns="http://www.w3.org/2000/svg" id="proration" width="50" height="50" viewBox="0 0 50 50" fill="none"><path d="M5.303 25C5.303 14.122 14.122 5.303 25 5.303c7.29 0 13.655 3.96 17.062 9.848H31.895a0.983 0.983 0 0 0 0 1.97h11.817a0.983 0.983 0 0 0 0.985 -0.985V4.317a0.983 0.983 0 0 0 -1.97 0v8.222A21.642 21.642 0 0 0 25 3.333c-11.967 0 -21.667 9.7 -21.667 21.667S13.033 46.667 25 46.667 46.667 36.967 46.667 25a0.985 0.985 0 0 0 -1.97 0c0 10.878 -8.818 19.697 -19.697 19.697 -10.878 0 -19.697 -8.818 -19.697 -19.697Z" fill="#7ABB4A"/><path d="M5.303 25C5.303 14.122 14.122 5.303 25 5.303c7.29 0 13.655 3.96 17.062 9.848H31.895a0.983 0.983 0 0 0 0 1.97h11.817a0.983 0.983 0 0 0 0.985 -0.985V4.317a0.983 0.983 0 0 0 -1.97 0v8.222A21.642 21.642 0 0 0 25 3.333c-11.967 0 -21.667 9.7 -21.667 21.667S13.033 46.667 25 46.667 46.667 36.967 46.667 25a0.985 0.985 0 0 0 -1.97 0c0 10.878 -8.818 19.697 -19.697 19.697 -10.878 0 -19.697 -8.818 -19.697 -19.697Z" stroke="#7ABB4A" stroke-width="0.2"/></svg>