<svg xmlns="http://www.w3.org/2000/svg" width="50" height="50" id="r" viewBox="0 0 50 50" fill="none">
    <mask id="path-1-inside-1_8750_26811" fill="white">
      <path d="M25.833 5c0 -0.92 -0.747 -1.673 -1.665 -1.6A20.833 20.833 0 1 0 46.6 25.832c0.073 -0.917 -0.68 -1.665 -1.6 -1.665H27.5a1.667 1.667 0 0 1 -1.667 -1.667V5Z"/>
    </mask>
    <path d="M25.833 5c0 -0.92 -0.747 -1.673 -1.665 -1.6A20.833 20.833 0 1 0 46.6 25.832c0.073 -0.917 -0.68 -1.665 -1.6 -1.665H27.5a1.667 1.667 0 0 1 -1.667 -1.667V5Z" stroke="#7ABB4A" stroke-width="1" mask="url(#path-1-inside-1_8750_26811)"/>
    <mask id="path-2-inside-2_8750_26811" fill="white">
      <path d="M45 21.667c0.92 0 1.675 -0.748 1.592 -1.665a18.333 18.333 0 0 0 -16.593 -16.593c-0.917 -0.083 -1.665 0.672 -1.665 1.592v15a1.667 1.667 0 0 0 1.667 1.667h15Z"/>
    </mask>
    <path d="M45 21.667c0.92 0 1.675 -0.748 1.592 -1.665a18.333 18.333 0 0 0 -16.593 -16.593c-0.917 -0.083 -1.665 0.672 -1.665 1.592v15a1.667 1.667 0 0 0 1.667 1.667h15Z" stroke="#7ABB4A" stroke-width="1" mask="url(#path-2-inside-2_8750_26811)"/>
  </svg>