 <svg xmlns="http://www.w3.org/2000/svg" id="syncData" viewBox="0 0 50 50" fill="#7ABB4A" style="enable-background:new 0 0 30 30" xml:space="preserve" width="50" height="50"><path class="st0" d="M7.833 46C7.166 45.833 7 45.333 7 44.667v-9c0-1 .333-1.167 1.167-1.167h9c.667 0 1.167.333 1.167 1s-.333 1-1.167 1h-7v.167c.5.5 1 1.167 1.667 1.667 2.833 2.833 6.333 4.667 10.333 5.333C28.5 44.667 33.834 43 38.5 38.5c3.667-3.5 5.5-7.833 5.667-12.833v-.833c0-.5.5-.833 1-.833s1 .333 1 .833c0 1.167 0 2.333-.167 3.333-1.333 7.167-5.167 12.333-11.667 15.5-3.333 1.667-6.833 2.167-10.5 2-5.333-.333-9.833-2.667-13.5-6.5l-.833-.833s-.167 0-.167.167v6.166c0 .667-.167 1-.833 1.333h-.667zM40 13.333l-1-1c-2.833-3.167-6.333-5.167-10.5-6-8-1.667-16.167 2.333-20 9.167C7 18.167 6.167 21 6 24.167V25c0 .5-.5 1-1 1s-1-.333-1-1v-1.833c1.333-9 6-15.167 14.5-18 7.667-2.5 14.667-.833 20.833 4.667L41 11.501h.167V5c0-.5.5-.667.833-.667.5 0 .833.333.833.833s.167 1 .167 1.5v8.167c0 .667-.333 1-1 1h-9.167c-.833 0-1.167-.333-1.167-1s.5-1 1.167-1H39.5c.167-.333.333-.5.5-.5z"/></svg>