<svg width="30" height="30" viewBox="0 0 30 30" fill="none" xmlns="http://www.w3.org/2000/svg">
<path d="M5.54844 3.49034H24.4516C25.0359 3.49034 25.5097 3.96407 25.5097 4.54844V25.4516C25.5097 26.0359 25.0359 26.5097 24.4516 26.5097H5.54844C4.96407 26.5097 4.49034 26.0359 4.49034 25.4516V4.54844C4.49034 3.96407 4.96407 3.49034 5.54844 3.49034Z" stroke="white" stroke-width="0.980677"/>
<path d="M9.55469 7.83594H20.2002" stroke="white" stroke-width="1.03229" stroke-linecap="round"/>
<path d="M9.55469 10.7422H20.2002" stroke="white" stroke-width="1.03229" stroke-linecap="round"/>
<path d="M13.6064 16.0812L13.6064 16.0812L10.5155 18.2187H8.77143C8.14586 18.2187 7.6437 18.7668 7.6437 19.4323V20.5129C7.6437 21.1784 8.14586 21.7265 8.77143 21.7265H9.70376C9.88076 22.3942 10.4526 22.8885 11.1334 22.8885C11.8143 22.8885 12.3861 22.3942 12.5631 21.7265H17.0995C17.2766 22.3942 17.8483 22.8885 18.5292 22.8885C19.2101 22.8885 19.7819 22.3944 19.9588 21.7265H20.9675C21.5931 21.7265 22.0952 21.1784 22.0952 20.5129V19.4323C22.0952 18.7668 21.5931 18.2187 20.9675 18.2187H19.9634L18.1796 16.152L18.1796 16.152C18.1024 16.0626 17.9932 16.0109 17.8781 16.0109H13.8291C13.7497 16.0109 13.6724 16.0357 13.6064 16.0812ZM19.4822 18.9555L19.4822 18.9555C19.5594 19.0449 19.6686 19.0966 19.7837 19.0966H20.9674C21.1331 19.0966 21.2745 19.2434 21.2745 19.4323V20.5129C21.2745 20.7019 21.1331 20.8486 20.9674 20.8486H19.6053C19.375 20.8486 19.195 21.0489 19.195 21.2876C19.195 21.69 18.8926 22.0106 18.5292 22.0106C18.1658 22.0106 17.8634 21.69 17.8634 21.2876C17.8634 21.0489 17.6834 20.8486 17.4531 20.8486H12.2096C11.9792 20.8486 11.7991 21.049 11.7991 21.2877C11.7991 21.6901 11.4967 22.0107 11.1333 22.0107C10.77 22.0107 10.4675 21.6901 10.4675 21.2877C10.4675 21.049 10.2876 20.8487 10.0572 20.8487H8.77131C8.6057 20.8487 8.46422 20.702 8.46422 20.513V19.4324C8.46422 19.2436 8.6057 19.0967 8.77131 19.0967H10.6366C10.716 19.0967 10.7933 19.0719 10.8593 19.0264L10.8593 19.0264L13.9502 16.8888H17.6984L19.4822 18.9555Z" fill="white" stroke="white" stroke-width="0.103229"/>
</svg>
