<svg width="30" height="30" viewBox="0 0 30 30" fill="none" xmlns="http://www.w3.org/2000/svg">
<path d="M20.1907 24.9079C18.645 25.7901 16.8784 26.2862 15.0565 26.2862C13.3451 26.2862 11.6613 25.8728 10.1706 25.0458C9.94974 24.9079 9.64607 25.0183 9.53576 25.2388C9.42543 25.4594 9.50822 25.7627 9.72908 25.8728C11.3576 26.7551 13.2071 27.2236 15.0566 27.2236C17.0165 27.2236 18.9487 26.6998 20.6601 25.7351C20.8809 25.5973 20.9637 25.3217 20.8257 25.1012C20.7153 24.8527 20.4116 24.77 20.1907 24.9079ZM20.2735 7.2101C23.0614 8.8642 24.9386 11.7585 25.2698 14.9839C25.2973 15.232 25.4906 15.3973 25.739 15.3973H25.7943C26.0427 15.3698 26.236 15.1493 26.2082 14.8735C25.8495 11.3725 23.8068 8.20237 20.7427 6.41054C20.5219 6.27267 20.2182 6.35535 20.1079 6.57591C19.9698 6.79647 20.0527 7.07222 20.2735 7.2101ZM4.34628 15.3974H4.40154C4.64993 15.3974 4.84324 15.2043 4.87077 14.984C5.20196 11.7587 7.07911 8.83661 9.89462 7.18261C10.1155 7.04474 10.1983 6.76919 10.0602 6.54863C9.92215 6.32807 9.64624 6.24538 9.42538 6.38326C6.33344 8.17499 4.29112 11.3453 3.93178 14.8738C3.90425 15.1493 4.09737 15.3699 4.34595 15.3974L4.34628 15.3974ZM15.0841 8.1198C16.7679 8.1198 18.148 6.74147 18.148 5.0599C18.148 3.37833 16.7679 2 15.0841 2C13.4002 2 12.0201 3.37833 12.0201 5.0599C12.0201 6.74147 13.4002 8.1198 15.0841 8.1198ZM15.0841 2.93727C16.2709 2.93727 17.2096 3.9022 17.2096 5.05995C17.2096 6.24522 16.2434 7.18263 15.0841 7.18263C13.8972 7.18263 12.9585 6.2177 12.9585 5.05995C12.9585 3.87448 13.9246 2.93727 15.0841 2.93727ZM7.71391 17.5476H2.46924C2.22085 17.5476 2 17.7682 2 18.0162V23.2539C2 23.5019 2.22085 23.7225 2.46924 23.7225H7.71391C7.9623 23.7225 8.18314 23.5019 8.18314 23.2539V18.0162C8.18334 17.7405 7.99002 17.5476 7.71391 17.5476ZM7.24467 22.7853H2.93857V18.4849H7.24467V22.7853ZM28.9135 22.868L25.8495 17.9611C25.7667 17.8232 25.6011 17.7405 25.4355 17.7405C25.2699 17.7405 25.1318 17.8232 25.0215 17.9611L21.985 22.868C21.9022 23.0058 21.9022 23.1987 21.985 23.3366C22.0678 23.4744 22.2334 23.5846 22.399 23.5846H28.527C28.6926 23.5846 28.8582 23.5019 28.941 23.3366C29.0238 23.1987 29.0238 23.0058 28.9135 22.868ZM23.2547 22.6474L25.4631 19.1189L27.6714 22.6474H23.2547ZM10.8607 14.4601C10.916 14.4876 10.9988 14.5153 11.0816 14.5153C11.2472 14.5153 11.4128 14.4326 11.4956 14.2672C12.1857 12.8614 13.6211 11.9792 15.1944 11.9792C16.547 11.9792 17.7892 12.6132 18.562 13.7159H17.1818C16.9335 13.7159 16.7126 13.9365 16.7126 14.1846C16.7126 14.4326 16.9335 14.6532 17.1818 14.6532H20.1355L20.1353 11.6482C20.1353 11.4002 19.9145 11.1796 19.6661 11.1796C19.4177 11.1796 19.1969 11.4002 19.1969 11.6482V12.9714C18.2306 11.7309 16.7954 11.0141 15.1944 11.0141C13.2622 11.0141 11.5231 12.0892 10.6674 13.8259C10.5294 14.0467 10.6399 14.3222 10.8607 14.4601ZM11.0814 20.9934C11.3298 20.9934 11.5506 20.7728 11.5506 20.5248V19.2016C12.5169 20.4421 13.9521 21.159 15.5531 21.159C17.4853 21.159 19.2244 20.0839 20.0801 18.3471C20.1904 18.1266 20.1076 17.8233 19.8592 17.7131C19.6384 17.6029 19.3347 17.6856 19.2244 17.9337C18.5068 19.3395 17.0989 20.2217 15.5256 20.2217C14.1729 20.2217 12.9308 19.5877 12.1579 18.485H13.5381C13.7865 18.485 14.0074 18.2644 14.0074 18.0164C14.0075 17.7679 13.8418 17.5476 13.5658 17.5476H10.6122V20.5248C10.6122 20.7728 10.833 20.9934 11.0814 20.9934Z" fill="white"/>
</svg>
