<svg width="30" height="30" viewBox="0 0 30 30" fill="none" xmlns="http://www.w3.org/2000/svg">
<path d="M9.89716 18.3252C9.89716 15.4585 12.1125 13.0988 14.8656 13.0988C17.6186 13.0988 19.834 15.4585 19.834 18.3252C19.834 18.4571 19.7819 18.5836 19.6889 18.6769C19.6889 18.6769 19.6889 18.6769 19.6889 18.6769L19.6714 18.6595C19.5831 18.7482 19.4634 18.798 19.3385 18.798H10.3927C10.2678 18.798 10.1481 18.7482 10.0598 18.6595C9.97147 18.5709 9.92188 18.4505 9.92188 18.3252C9.92188 15.4709 12.1274 13.1236 14.8656 13.1235L9.89716 18.3252ZM9.89716 18.3252C9.89716 18.457 9.94932 18.5836 10.0423 18.6769L9.89716 18.3252ZM14.8656 7.89716C13.4923 7.89716 12.369 9.02545 12.369 10.4045C12.369 11.7835 13.4923 12.9118 14.8656 12.9118C16.2389 12.9118 17.3622 11.7835 17.3622 10.4045C17.3622 9.02545 16.2389 7.89716 14.8656 7.89716ZM14.8656 8.89237C15.7026 8.89237 16.3711 9.56366 16.3711 10.4045C16.3711 11.2454 15.7026 11.9167 14.8656 11.9167C14.0287 11.9167 13.3601 11.2454 13.3601 10.4045C13.3601 9.56366 14.0287 8.89237 14.8656 8.89237ZM14.8656 14.094C16.8947 14.094 18.5626 15.7127 18.796 17.8276H10.9352C11.1686 15.7127 12.8365 14.094 14.8656 14.094Z" fill="white" stroke="white" stroke-width="0.0494371"/>
<path d="M3.16456 4.78354C10.0176 4.77319 13.8817 2.31268 14.8386 1.04128C14.8554 1.01885 14.8872 1.01735 14.9077 1.03656C18.8102 4.69607 24.5883 5.06617 26.803 4.78949C26.8291 4.78623 26.8512 4.80635 26.8535 4.83258C28.2512 20.4813 19.2976 26.9188 14.881 28.1869C14.8728 28.1893 14.865 28.1893 14.8568 28.187C10.408 26.9439 1.90117 20.5252 3.11778 4.8271C3.11965 4.80299 3.14038 4.78357 3.16456 4.78354Z" stroke="white" stroke-width="1.13875" stroke-linecap="round"/>
</svg>
