<svg width="30" height="30" viewBox="0 0 30 30" fill="none" xmlns="http://www.w3.org/2000/svg">
<path d="M16.7233 2.13526C18.1068 2.35372 19.2928 2.72822 20.5723 3.3576C21.9715 4.04419 22.965 4.75679 24.1145 5.90111C25.2588 7.05063 25.9714 8.04411 26.658 9.4433C27.1158 10.3744 27.3446 10.9829 27.5943 11.9192C27.922 13.1675 28 13.8489 28 15.2949C28 16.7409 27.922 17.4223 27.5943 18.6707C27.3446 19.6069 27.1158 20.2155 26.658 21.1466C25.9714 22.5458 25.2588 23.5392 24.1145 24.6888C22.965 25.8331 21.9715 26.5457 20.5723 27.2323C19.2876 27.8616 18.1328 28.2309 16.6972 28.465C15.683 28.6262 13.7584 28.6262 12.7441 28.465L16.7233 2.13526ZM16.7233 2.13526C15.9586 2.01562 14.2526 1.95841 13.5244 2.03123M16.7233 2.13526L13.5244 2.03123M13.5244 2.03123L13.5219 2.00655C13.5219 2.00655 13.5219 2.00655 13.522 2.00655C14.2525 1.93351 15.9606 1.99083 16.7271 2.11076L16.7271 2.11076C18.1132 2.32961 19.3015 2.70488 20.5833 3.33535C21.985 4.02317 22.9806 4.73738 24.132 5.88353L24.1321 5.88361C25.2782 7.03498 25.9925 8.03065 26.6803 9.43236C27.1387 10.3648 27.3681 10.9749 27.6182 11.9128L27.6183 11.9129C27.9466 13.1636 28.0248 13.8471 28.0248 15.2949C28.0248 16.7427 27.9466 17.4263 27.6183 18.677L27.6182 18.6771C27.3681 19.615 27.1387 20.2251 26.6803 21.1575C25.9925 22.5592 25.2782 23.5549 24.1321 24.7062L24.132 24.7063C22.9806 25.8525 21.985 26.5667 20.5833 27.2545L20.5832 27.2545C19.2963 27.885 18.1392 28.255 16.7012 28.4895L16.7011 28.4895C15.6843 28.6512 13.7571 28.6512 12.7403 28.4895L12.7402 28.4895C11.3022 28.255 10.1451 27.885 8.85815 27.2545L8.85814 27.2545C7.45643 26.5667 6.46075 25.8525 5.30938 24.7063L5.3093 24.7062C4.16314 23.5549 3.44893 22.5592 2.7611 21.1575L2.76109 21.1575C2.13064 19.8705 1.7606 18.7135 1.52614 17.2755L1.52613 17.2754C1.36447 16.2585 1.36447 14.3313 1.52613 13.3145L1.52615 13.3144C1.66161 12.486 1.93765 11.4129 2.19312 10.7143L2.19312 10.7143M13.5244 2.03123L2.19312 10.7143M2.19312 10.7143C2.42254 10.0886 3.06307 8.77628 3.3918 8.25968L2.19312 10.7143ZM26.8467 16.8261C26.9452 16.0845 26.9452 14.5054 26.8467 13.7638C26.5612 11.625 25.7514 9.64723 24.464 7.92895C23.9971 7.30648 23.0467 6.32486 22.4292 5.82152C20.6227 4.35247 18.3126 3.38696 16.0705 3.1534C13.672 2.9042 11.4297 3.29874 9.32741 4.34208C7.97755 5.01702 6.99678 5.73315 5.94808 6.8182L5.94801 6.81826C4.97204 7.82019 4.34418 8.71784 3.71072 10.0211L3.71068 10.0212C3.15017 11.163 2.7712 12.4347 2.59469 13.7638C2.49615 14.5054 2.49615 16.0844 2.59468 16.8261C2.90097 19.105 3.81461 21.2385 5.24727 23.0034C5.7506 23.6209 6.73223 24.5713 7.35471 25.0382C9.07299 26.3256 11.0508 27.1354 13.1895 27.4209C13.9312 27.5195 15.5102 27.5195 16.2518 27.4209C18.3906 27.1354 20.3684 26.3256 22.0867 25.0382C22.7092 24.5714 23.6908 23.6209 24.1941 23.0034M26.8467 16.8261L26.8713 16.8294L26.8467 16.8261C26.8467 16.8261 26.8467 16.8261 26.8467 16.8261ZM26.8467 16.8261C26.5404 19.1051 25.6268 21.2385 24.1941 23.0034M24.1941 23.0034L24.2131 23.0189L24.1941 23.0035C24.1941 23.0034 24.1941 23.0034 24.1941 23.0034Z" fill="white" stroke="white" stroke-width="0.049599"/>
<path d="M8.46875 14.8112L13.3195 19.5667C13.339 19.5858 13.3702 19.5856 13.3894 19.5662L21.6671 11.2422" stroke="white" stroke-width="1.19037" stroke-linecap="round"/>
</svg>
